<svg viewBox="0 0 330 200" xmlns="http://www.w3.org/2000/svg"><g><g><g><g><g><line x1="81.48399925231934" y1="175.61999893188477" x2="76.48399925231934" y2="175.61999893188477" style="visibility: inherit;" fill="rgb(0, 0, 0)" stroke="rgb(204, 204, 204)" stroke-width="1px"></line><line x1="81.48399925231934" y1="160.98499902089438" x2="76.48399925231934" y2="160.98499902089438" style="visibility: inherit;" fill="rgb(0, 0, 0)" stroke="rgb(204, 204, 204)" stroke-width="1px"></line><line x1="81.48399925231934" y1="146.34999910990396" x2="76.48399925231934" y2="146.34999910990396" style="visibility: inherit;" fill="rgb(0, 0, 0)" stroke="rgb(204, 204, 204)" stroke-width="1px"></line><line x1="81.48399925231934" y1="131.71499919891357" x2="76.48399925231934" y2="131.71499919891357" style="visibility: inherit;" fill="rgb(0, 0, 0)" stroke="rgb(204, 204, 204)" stroke-width="1px"></line><line x1="81.48399925231934" y1="117.07999928792319" x2="76.48399925231934" y2="117.07999928792319" style="visibility: inherit;" fill="rgb(0, 0, 0)" stroke="rgb(204, 204, 204)" stroke-width="1px"></line><line x1="81.48399925231934" y1="102.44499937693277" x2="76.48399925231934" y2="102.44499937693277" style="visibility: inherit;" fill="rgb(0, 0, 0)" stroke="rgb(204, 204, 204)" stroke-width="1px"></line><line x1="81.48399925231934" y1="87.80999946594238" x2="76.48399925231934" y2="87.80999946594238" style="visibility: inherit;" fill="rgb(0, 0, 0)" stroke="rgb(204, 204, 204)" stroke-width="1px"></line><line x1="81.48399925231934" y1="73.17499955495198" x2="76.48399925231934" y2="73.17499955495198" style="visibility: inherit;" fill="rgb(0, 0, 0)" stroke="rgb(204, 204, 204)" stroke-width="1px"></line><line x1="81.48399925231934" y1="58.53999964396159" x2="76.48399925231934" y2="58.53999964396159" style="visibility: inherit;" fill="rgb(0, 0, 0)" stroke="rgb(204, 204, 204)" stroke-width="1px"></line><line x1="81.48399925231934" y1="43.90499973297119" x2="76.48399925231934" y2="43.90499973297119" style="visibility: inherit;" fill="rgb(0, 0, 0)" stroke="rgb(204, 204, 204)" stroke-width="1px"></line><line x1="81.48399925231934" y1="29.269999821980775" x2="76.48399925231934" y2="29.269999821980775" style="visibility: inherit;" fill="rgb(0, 0, 0)" stroke="rgb(204, 204, 204)" stroke-width="1px"></line><line x1="81.48399925231934" y1="14.634999910990416" x2="76.48399925231934" y2="14.634999910990416" style="visibility: inherit;" fill="rgb(0, 0, 0)" stroke="rgb(204, 204, 204)" stroke-width="1px"></line><line x1="81.48399925231934" y1="0" x2="76.48399925231934" y2="0" style="visibility: inherit;" fill="rgb(0, 0, 0)" stroke="rgb(204, 204, 204)" stroke-width="1px"></line></g><g transform="translate(71.48399925231934, 0)"><text style="text-anchor: end; visibility: hidden; font-family: &quot;Helvetica Neue&quot;, sans-serif; font-size: 12px; font-weight: 200;" x="0" y="175.61999893188477" dx="0em" dy="0.3em" fill="rgb(50, 49, 63)" stroke="none" stroke-width="1px">-3e+3</text><text style="text-anchor: end; visibility: inherit; font-family: &quot;Helvetica Neue&quot;, sans-serif; font-size: 12px; font-weight: 200;" x="0" y="160.98499902089438" dx="0em" dy="0.3em" fill="rgb(50, 49, 63)" stroke="none" stroke-width="1px">-2.5e+3</text><text style="text-anchor: end; visibility: hidden; font-family: &quot;Helvetica Neue&quot;, sans-serif; font-size: 12px; font-weight: 200;" x="0" y="146.34999910990396" dx="0em" dy="0.3em" fill="rgb(50, 49, 63)" stroke="none" stroke-width="1px">-2e+3</text><text style="text-anchor: end; visibility: inherit; font-family: &quot;Helvetica Neue&quot;, sans-serif; font-size: 12px; font-weight: 200;" x="0" y="131.71499919891357" dx="0em" dy="0.3em" fill="rgb(50, 49, 63)" stroke="none" stroke-width="1px">-1.5e+3</text><text style="text-anchor: end; visibility: hidden; font-family: &quot;Helvetica Neue&quot;, sans-serif; font-size: 12px; font-weight: 200;" x="0" y="117.07999928792319" dx="0em" dy="0.3em" fill="rgb(50, 49, 63)" stroke="none" stroke-width="1px">-1e+3</text><text style="text-anchor: end; visibility: inherit; font-family: &quot;Helvetica Neue&quot;, sans-serif; font-size: 12px; font-weight: 200;" x="0" y="102.44499937693277" dx="0em" dy="0.3em" fill="rgb(50, 49, 63)" stroke="none" stroke-width="1px">-500</text><text style="text-anchor: end; visibility: hidden; font-family: &quot;Helvetica Neue&quot;, sans-serif; font-size: 12px; font-weight: 200;" x="0" y="87.80999946594238" dx="0em" dy="0.3em" fill="rgb(50, 49, 63)" stroke="none" stroke-width="1px">0</text><text style="text-anchor: end; visibility: inherit; font-family: &quot;Helvetica Neue&quot;, sans-serif; font-size: 12px; font-weight: 200;" x="0" y="73.17499955495198" dx="0em" dy="0.3em" fill="rgb(50, 49, 63)" stroke="none" stroke-width="1px">500</text><text style="text-anchor: end; visibility: hidden; font-family: &quot;Helvetica Neue&quot;, sans-serif; font-size: 12px; font-weight: 200;" x="0" y="58.53999964396159" dx="0em" dy="0.3em" fill="rgb(50, 49, 63)" stroke="none" stroke-width="1px">1e+3</text><text style="text-anchor: end; visibility: inherit; font-family: &quot;Helvetica Neue&quot;, sans-serif; font-size: 12px; font-weight: 200;" x="0" y="43.90499973297119" dx="0em" dy="0.3em" fill="rgb(50, 49, 63)" stroke="none" stroke-width="1px">1.5e+3</text><text style="text-anchor: end; visibility: hidden; font-family: &quot;Helvetica Neue&quot;, sans-serif; font-size: 12px; font-weight: 200;" x="0" y="29.269999821980775" dx="0em" dy="0.3em" fill="rgb(50, 49, 63)" stroke="none" stroke-width="1px">2e+3</text><text style="text-anchor: end; visibility: inherit; font-family: &quot;Helvetica Neue&quot;, sans-serif; font-size: 12px; font-weight: 200;" x="0" y="14.634999910990416" dx="0em" dy="0.3em" fill="rgb(50, 49, 63)" stroke="none" stroke-width="1px">2.5e+3</text><text style="text-anchor: end; visibility: hidden; font-family: &quot;Helvetica Neue&quot;, sans-serif; font-size: 12px; font-weight: 200;" x="0" y="0" dx="0em" dy="0.3em" fill="rgb(50, 49, 63)" stroke="none" stroke-width="1px">3e+3</text></g><line x1="81.48399925231934" y1="0" x2="81.48399925231934" y2="175.61999893188477" fill="rgb(0, 0, 0)" stroke="rgb(204, 204, 204)" stroke-width="1px"></line></g></g><g transform="translate(81, 0)" clip-path="url(#clip_0)"><clipPath id="clip_0"><rect width="248" height="175"></rect></clipPath><g><g><g><line x1="0" y1="0" x2="0" y2="175.61999893188477" fill="rgb(0, 0, 0)" stroke="rgb(60, 60, 60)" stroke-width="1px" opacity="0.25"></line><line x1="22.592363704334606" y1="0" x2="22.592363704334606" y2="175.61999893188477" fill="rgb(0, 0, 0)" stroke="rgb(60, 60, 60)" stroke-width="1px" opacity="0.25"></line><line x1="45.18472740866921" y1="0" x2="45.18472740866921" y2="175.61999893188477" fill="rgb(0, 0, 0)" stroke="rgb(60, 60, 60)" stroke-width="1px" opacity="0.25"></line><line x1="67.7770911130038" y1="0" x2="67.7770911130038" y2="175.61999893188477" fill="rgb(0, 0, 0)" stroke="rgb(60, 60, 60)" stroke-width="1px" opacity="0.25"></line><line x1="90.36945481733842" y1="0" x2="90.36945481733842" y2="175.61999893188477" fill="rgb(0, 0, 0)" stroke="rgb(60, 60, 60)" stroke-width="1px" opacity="0.25"></line><line x1="112.96181852167302" y1="0" x2="112.96181852167302" y2="175.61999893188477" fill="rgb(0, 0, 0)" stroke="rgb(60, 60, 60)" stroke-width="1px" opacity="0.25"></line><line x1="135.5541822260076" y1="0" x2="135.5541822260076" y2="175.61999893188477" fill="rgb(0, 0, 0)" stroke="rgb(60, 60, 60)" stroke-width="1px" opacity="0.25"></line><line x1="158.14654593034223" y1="0" x2="158.14654593034223" y2="175.61999893188477" fill="rgb(0, 0, 0)" stroke="rgb(60, 60, 60)" stroke-width="1px" opacity="0.25"></line><line x1="180.73890963467684" y1="0" x2="180.73890963467684" y2="175.61999893188477" fill="rgb(0, 0, 0)" stroke="rgb(60, 60, 60)" stroke-width="1px" opacity="0.25"></line><line x1="203.33127333901146" y1="0" x2="203.33127333901146" y2="175.61999893188477" fill="rgb(0, 0, 0)" stroke="rgb(60, 60, 60)" stroke-width="1px" opacity="0.25"></line><line x1="225.92363704334605" y1="0" x2="225.92363704334605" y2="175.61999893188477" fill="rgb(0, 0, 0)" stroke="rgb(60, 60, 60)" stroke-width="1px" opacity="0.25"></line><line x1="248.51600074768066" y1="0" x2="248.51600074768066" y2="175.61999893188477" fill="rgb(0, 0, 0)" stroke="rgb(60, 60, 60)" stroke-width="1px" opacity="0.25"></line></g><g><line x1="0" y1="175.61999893188477" x2="248.51600074768066" y2="175.61999893188477" fill="rgb(0, 0, 0)" stroke="rgb(60, 60, 60)" stroke-width="1px" opacity="0.25"></line><line x1="0" y1="160.98499902089438" x2="248.51600074768066" y2="160.98499902089438" fill="rgb(0, 0, 0)" stroke="rgb(60, 60, 60)" stroke-width="1px" opacity="0.25"></line><line x1="0" y1="146.34999910990396" x2="248.51600074768066" y2="146.34999910990396" fill="rgb(0, 0, 0)" stroke="rgb(60, 60, 60)" stroke-width="1px" opacity="0.25"></line><line x1="0" y1="131.71499919891357" x2="248.51600074768066" y2="131.71499919891357" fill="rgb(0, 0, 0)" stroke="rgb(60, 60, 60)" stroke-width="1px" opacity="0.25"></line><line x1="0" y1="117.07999928792319" x2="248.51600074768066" y2="117.07999928792319" fill="rgb(0, 0, 0)" stroke="rgb(60, 60, 60)" stroke-width="1px" opacity="0.25"></line><line x1="0" y1="102.44499937693277" x2="248.51600074768066" y2="102.44499937693277" fill="rgb(0, 0, 0)" stroke="rgb(60, 60, 60)" stroke-width="1px" opacity="0.25"></line><line x1="0" y1="87.80999946594238" x2="248.51600074768066" y2="87.80999946594238" fill="rgb(0, 0, 0)" stroke="rgb(60, 60, 60)" stroke-width="1px" opacity="0.25"></line><line x1="0" y1="73.17499955495198" x2="248.51600074768066" y2="73.17499955495198" fill="rgb(0, 0, 0)" stroke="rgb(60, 60, 60)" stroke-width="1px" opacity="0.25"></line><line x1="0" y1="58.53999964396159" x2="248.51600074768066" y2="58.53999964396159" fill="rgb(0, 0, 0)" stroke="rgb(60, 60, 60)" stroke-width="1px" opacity="0.25"></line><line x1="0" y1="43.90499973297119" x2="248.51600074768066" y2="43.90499973297119" fill="rgb(0, 0, 0)" stroke="rgb(60, 60, 60)" stroke-width="1px" opacity="0.25"></line><line x1="0" y1="29.269999821980775" x2="248.51600074768066" y2="29.269999821980775" fill="rgb(0, 0, 0)" stroke="rgb(60, 60, 60)" stroke-width="1px" opacity="0.25"></line><line x1="0" y1="14.634999910990416" x2="248.51600074768066" y2="14.634999910990416" fill="rgb(0, 0, 0)" stroke="rgb(60, 60, 60)" stroke-width="1px" opacity="0.25"></line><line x1="0" y1="0" x2="248.51600074768066" y2="0" fill="rgb(0, 0, 0)" stroke="rgb(60, 60, 60)" stroke-width="1px" opacity="0.25"></line></g></g></g><g><g><line x1="0" y1="87.80999946594238" x2="248.51600074768066" y2="87.80999946594238" fill="rgb(0, 0, 0)" stroke="rgb(153, 153, 153)" stroke-width="1.5px"></line></g></g><g><g><line x1="-22.592363704334606" y1="0" x2="-22.592363704334606" y2="175.61999893188477" fill="rgb(0, 0, 0)" stroke="rgb(153, 153, 153)" stroke-width="1.5px"></line></g></g><g><g><g><g><g><path style="fill: none;" stroke="rgb(255, 112, 67)" stroke-width="2px" d="M23.721981889551337,288.3134775417011L24.444937528090044,93.94923821027422L24.535306982907382,155.53509811475303L24.62567643772472,169.15220968319812L24.670861165133392,12.505461703517113L24.761230619950727,-37.760860202034166L25.03233898440274,141.9620775046322L25.16789316662875,-65.41067160369929L26.568619716297498,-76.43929826322704L26.88491280815818,54.01399847554582L27.246390627427537,101.52625574149455L27.381944809653543,-31.86187863148902L27.96934626596624,-32.7358329221417L28.330824085235598,41.281305459432645L28.511562994870275,5.588703204519732L28.918225541548296,84.2436309694333L29.41525754304366,110.62232060277977L29.641181180087003,159.39469316094593L29.776735362313012,174.25020185299962L30.183397908991033,97.78893538185966L30.228582636399704,18.016833483064943L30.680429910486396,25.989809647284716L30.90635354752974,3.9938926720720644L30.99672300234708,-33.1067227522079L31.04190772975575,-10.23973733337462L31.222646639390423,48.16790032643017L31.58412445865978,76.29243586410591L31.945602277929133,42.36666697337759L31.9907870053378,41.51727097365992L32.035971732746475,116.9983955397372L32.216710642381145,-17.127378361930255L32.71374264387651,96.67046986915823L32.984851008328526,112.71714564765318L33.21077464537187,7.1118072495924025L33.34632882759788,112.91686635179973L33.8885455565019,33.676449954802706L34.15965392095393,111.48880065382383L34.385577557997266,162.88376459823812L34.521131740223275,-12.593973032424543L34.70187064985796,49.20497883708903L34.88260955949263,95.03238542544507L34.97297901430997,108.17503155793278L35.83148883507469,35.682068350698046L36.05741247211803,80.07277062973122L36.1025971995267,33.45416816967898L36.32852083657005,96.90275747165197L36.55444447361339,83.08527392503301L36.64481392843073,121.33064200231826L37.00629174770008,144.56027547099325L37.05147647510875,156.28778468185118L37.32258483956077,122.97631791396518L37.367769566969436,146.66837614495353L37.4129542943781,156.72562752973354L37.54850847660411,162.52663300557538L37.95517102328214,156.31739999161528L38.31664884255149,152.88337108771628L39.0396044810902,149.4209078911111L39.22034339072488,152.88012341652478L39.49145175517689,122.11354241735752L39.672190664811566,104.99574121862979L39.76256011962891,128.76719721593398L40.30477684853294,139.77482093274762L40.349961575941606,112.17804636889417L41.07291721448031,96.59480554018062L41.66031867079301,87.62359883361776L41.70550339820168,112.22895719516457L41.79587285301902,95.17614903914163L42.06698121747104,116.10458635420636L42.47364376414906,124.03713026209401L42.564013218966394,101.22883304402447L42.60919794637506,116.00320988482044L42.74475212860107,95.91094084265902L43.01586049305309,108.86267102552372L43.42252303973111,88.81552059862136L43.55807722195712,103.06278126934278L43.60326194936579,85.43610661295376L44.009924496043816,76.51298142454613L44.05510922345248,95.48311072801684L44.732880134582516,83.21001339391069L44.82324958939986,96.9601922761649L44.9136190442172,86.63215265137046L45.546205227938565,77.45318109897683L45.77212886498191,98.39443155013794L45.86249831979925,89.78148871990032L45.99805250202525,107.36561330940688L46.35953032129461,117.41291704322187L46.630638685746625,103.00463382479819L46.72100814056397,112.21923163766172L46.85656232278997,113.11485377299203L47.12767068724199,92.74842211687337L47.35359432428533,65.25135111797314L47.80544159837203,48.06861356576485L47.89581105318936,89.69957472439815L48.076549962824046,57.431559910328204L48.34765832727606,45.480937404552066L48.528397236910735,53.15019798417208L48.5735819643194,53.76918068477924L48.799505601362746,58.560710440858045L48.88987505618009,66.88673485778742L48.93505978358876,86.10485036993057L49.02542923840609,75.82199362482825L49.11579869322343,87.44014725571444L49.1609834206321,82.3612415121713L49.38690705767545,86.03885515542397L49.43209178508411,91.97689963945113L49.83875433176214,98.00155091047574L50.10986269621416,69.20165339123169L50.2002321510315,82.90221032944649L50.42615578807484,89.94170258854646L50.65207942511819,153.74553054196915L50.74244887993552,222.64931792661193L51.28466560883955,183.36611529404823L51.60095870070024,136.30814363714873L51.64614342810891,113.39291656500137L51.73651288292625,93.77288650805433L51.781697610334916,100.78050178886818L51.826882337743584,92.20616098417409L51.87206706515226,99.38163636014313L51.96243651996959,80.60060654351759L52.0979907021956,81.01495151327299L52.27872961183028,59.73572409322094L52.50465324887362,91.31406102968262L52.64020743109963,51.686368307574696L52.82094634073431,16.453186045746236L52.95650052296031,59.79642402693342L53.09205470518632,21.059065203553104L53.272793614821005,80.15564049858553L53.317978342229665,93.69365154231976L53.49871725186435,112.93837780208901L53.724640888907686,73.30158522959931L53.76982561631636,101.2040065944183L54.08611870817705,130.85857154961627L54.22167289040305,66.05620743523211L54.40241180003773,89.74083421010036L54.53796598226374,61.31642259780372L54.899443801533096,135.09050680066454L55.080182711167765,131.785939583374L55.215736893393775,22.342296620440607L55.26092162080245,-24.456727395115763L55.30610634821112,-18.033506383434116L55.622399440071796,41.03462213776385L55.893507804523814,53.61151615418912L55.98387725934115,89.82479472123458L56.029061986749824,86.15611020891666L56.2098008963845,42.647824131538385L56.39053980601918,97.8416004291316L56.52609398824519,97.12395381165766L56.571278715653854,86.68461660077668L56.61646344306252,59.8340234988227L56.7972023526972,89.54972834721897L57.20386489937522,69.70532859280956L57.384603809009896,96.20359253393029L57.42978853641857,88.03161835921036L57.47497326382724,82.40098038895411L57.56534271864458,82.4616542976761L57.61052744605324,90.13620372877857L57.88163581050526,88.49058012684L58.062374720139935,56.1037985607303L58.1075594475486,41.483631839845515L58.197928902365945,83.76342798607648L58.28829835718329,113.71426732953536L58.423852539409296,91.38603955619456L58.469037266817956,61.36703158068734L58.514221994226624,41.11781525625895L58.5594067216353,40.11040253836714L58.69496090386131,65.06480637852673L58.875699813495984,82.27708781023641L59.10162345053933,76.74155382555435L59.146808177947996,87.0552290898546L59.19199290535667,90.55551178199453L59.46310126980868,107.11893193809763L59.7342096342607,99.15473803231825L59.91494854389537,87.92725131881706L60.05050272612139,95.99288404053405L60.23124163575606,108.01954214303504L60.41198054539073,96.56149614289083L60.502350000208075,103.33008539695926L60.72827363725142,107.53832927370104L61.81270709505948,49.950642313005474L61.90307654987682,-10.801243713834339L61.94826127728549,-34.543490043952005L62.129000186920166,48.531490502601685L62.2193696417375,51.10552916197963L62.40010855137218,84.25457481480214L62.49047800618951,96.5169134057154L62.85195582545887,98.59828582831392L63.12306418991089,98.91739625884098L63.30380309954557,100.99620082379373L63.620096191406255,100.31216593803698L63.665280918814915,100.6708878556648L63.71046564622358,100.29146408651833L63.75565037363225,101.20996613593066L63.9815740106756,101.18648569255896L64.07194346549295,99.83745104598317L64.20749764771895,100.31368355783559L64.25268237512762,99.71877838109411L64.34305182994495,99.46761745458163L64.70452964921431,99.26071585323962L64.74971437662298,98.72730762014329L64.88526855884899,98.21118512386084L65.20156165070966,99.62307032765703L65.33711583293568,99.7422406187909L65.7437783796137,98.79277861657522L65.83414783443105,99.9153743957982L65.92451728924839,100.07626095629378L66.06007147147439,99.81114153578189L66.10525619888305,99.63516317141938L66.28599510851772,99.18535923985633L66.51191874556108,99.32752108727475L66.55710347296976,100.2369019635409L66.73784238260443,100.02290610695772L66.7830271100131,100.3601838570213L66.82821183742178,99.34467626519893L66.87339656483043,100.03002324812992L67.05413547446511,99.54057617859576L67.09932020187378,100.00127679642296L67.23487438409978,99.54587213861123L67.28005911150845,99.11422083377923L67.64153693077782,98.46533593118103L67.82227584041249,93.73668191562618L67.91264529522982,90.89927771683533L68.00301475004716,89.19739396978947L68.04819947745582,88.19469860487267L68.40967729672519,87.57342301876312L68.45486202413386,87.20571301267822L68.59041620635986,86.98296607739952L68.95189402562922,86.85162187468391L69.04226348044655,86.76964061032176L69.22300239008123,86.7230540215037L69.2681871174899,86.69260641841724L69.49411075453324,86.67459234334972L69.81040384639392,86.66512082484527L70.3074358478893,86.66981836625516L70.39780530270663,86.66035104806666L70.66891366715865,86.65893467299676L70.71409839456732,86.65347032100537L70.80446784938465,86.65046870648243L70.894837304202,86.65730054762217L71.07557621383667,86.65387581171457L71.25631512347134,86.65246804011235L71.34668457828867,86.65275793801145L71.57260821533202,86.66055285822614L71.6177929427407,86.65476280196526L71.66297767014937,86.6521518258817L72.02445548941873,86.65498065307715L72.29556385387073,86.65247096753218L72.47630276350542,86.65199985177081L72.52148749091408,86.65326107476065L72.56667221832275,86.66865133460387L72.97333476500077,86.673275161833L73.19925840204412,86.66612206180751L73.47036676649614,86.66863636106785L73.83184458576548,86.6632827299419L73.92221404058283,86.66038984330237L74.8259085887562,86.65788663134283L74.87109331616487,86.65725580108564L75.05183222579956,86.65594533105897L75.09701695320823,86.65481577325767L75.1422016806169,86.65523561890774L75.95552677397295,86.65413662040696L76.1814504110163,86.65057090005038L76.49774350287697,322.84188659584476L76.904406049555,185.9744377020296L77.13032968659834,146.2428688773466L77.2206991414157,122.40716083311221L77.31106859623301,108.10661478543588L77.4918075058677,99.5254138267878L78.30513259922374,94.38836373504844L78.39550205404107,91.29314154458582L78.48587150885842,89.44716228155573L78.84734932812778,88.3356057035439L78.98290351035378,87.66102911396104L79.2540118748058,87.2559025019342L79.34438132962313,87.01271800490309L79.43475078444048,86.87955102941574L79.47993551184915,86.78685406237135L79.61548969407515,86.74433623474143L79.84141333111849,86.71103876957984L80.20289115038786,86.686384084655L80.51918424224854,86.67234490830856L80.79029260670055,86.66255504339341L80.97103151633523,86.65680247238974L81.0162162437439,86.66405380070938L81.06140097115257,86.65849319050437L81.10658569856123,86.65760196091739L81.37769406301325,86.66079720979108L81.82954133709994,86.65998566052349L81.91991079191727,86.65965370975229L82.05546497414329,86.65668689501928L82.10064970155196,86.65282870586557L82.23620388377797,86.65977567319166L82.50731224822998,86.67616087174726L82.59768170304731,86.66898201918231L82.73323588527333,86.66210398022672L82.86879006749933,86.65681490525827L83.00434424972535,86.6660448996091L83.04952897713402,86.66079905223002L83.86285407049006,86.65787708930291L84.35988607198541,86.65663788731256L84.5406249816201,86.65597261477511L85.17321116534146,86.6557764868654L85.21839589275012,86.65529615082004L85.35395007497614,86.65899988123641L85.39913480238481,86.65879846560081L85.48950425720214,86.68086195899531L85.53468898461082,86.68704271399523L86.4383835327842,86.70034404141802L86.48356826019287,86.68508467417944L86.52875298760155,86.67330991229642L86.75467662464489,86.66534707143794L86.89023080687089,86.66767078982278L87.07096971650557,86.67222109467177L87.16133917132291,86.66557407825161L87.34207808095759,86.67207690520092L87.52281699059228,86.67222891859304L87.70355590022693,86.6677103339012L88.42651153876565,86.67490791053439L88.83317408544367,86.69401518466533L88.87835881285234,176.96485893289798L89.3753908143477,140.85311506962776L89.73686863361705,119.18394022741711L89.78205336102572,106.18089875429003L89.91760754325173,98.37981129254368L90.00797699806907,93.72021105384745L90.05316172547775,90.90749270274029L90.41463954474709,89.21457066261293L90.45982427215576,88.19418763702049L90.77611736401644,87.60156545225256L90.86648681883379,87.2479524667583L91.22796463810313,87.04377077267269L91.45388827514648,86.90938109116297L91.49907300255515,86.81713173365225L91.63462718478117,86.79228489261142L91.95092027664184,86.74613382331793L92.49313700554588,86.73820713099296L92.71906064258923,86.70936839430892L92.7642453699979,86.7023776285236L92.85461482481523,86.6867003126617L92.8997995522239,86.7259235874911L93.17090791667592,86.70845181724081L93.4872010085366,86.7022710466752L93.53238573594527,86.71648295593091L93.93904828262329,86.70224572714163L94.11978719225797,86.68544235045906L94.21015664707531,86.68439219351994L94.39089555670999,86.68607217656717L94.797558103388,86.6935592623644L95.1138511952487,86.70648374451959L95.15903592265737,86.70209126776415L95.3849595597007,86.69501994932514L95.74643737897006,86.66349789895196L95.83680683378739,86.66489430410256L96.15309992564809,86.66960947532486L96.19828465305676,86.70584691351789L96.37902356269143,86.71623675582099L96.60494719973478,86.69469296866853L96.74050138196078,86.69773496050115L96.83087083677812,86.69769138830863L96.96642501900413,86.70673431790547L97.10197920123012,86.69636108232095L97.2827181108648,86.70475650901487L97.64419593013417,86.73313535720492L98.00567374940351,86.7018200921637L98.09604320422085,86.69674066054888L98.1864126590382,86.7004689690223L98.3219668412642,86.71629647736964L98.36715156867287,86.71810473921497L98.6382599331249,86.72071420525454L98.68344466053357,86.70135815027957L99.0449224798029,86.72218800930004L99.18047666202892,86.69365741170196L99.22566138943759,86.68222677471192L99.27084611684626,86.6874189982948L99.31603084425493,86.70341485633777L99.40640029907227,86.70692920803832L99.54195448129828,86.71459400963764L99.85824757315895,86.70399442889769L99.90343230056763,86.67222901198335L100.21972539242832,86.67176971765423L100.26491011983698,86.69251904597346L100.31009484724565,86.69431369487916L100.71675739392367,86.6729520119622L100.89749630355836,86.66290688941744L100.98786575837569,86.67285808440914L101.03305048578436,86.67736869576117L101.12341994060169,86.68280264460232L101.34934357764504,86.68110686368385L101.39452830505371,86.6981443794285L101.48489775987105,86.7082159297087L101.53008248727971,86.70711232787684L101.57526721468838,86.71731069623743L101.80119085173173,86.72169462475028L102.4337770354531,86.7198567245152L102.84043958213113,86.70129555676118L103.11154794658314,86.72223410600529L103.42784103844383,86.71398005580771L103.4730257658525,86.73280271184832L103.87968831253052,86.72432127992765L104.1959814043912,86.71156610688755L104.60264395106923,86.72227682837601L104.73819813329524,86.71077261730461L105.05449122515591,86.726020355969L105.14486067997325,86.72553079233231L105.32559958960793,86.71231923709018L105.77744686369462,86.70186159410619L105.82263159110329,86.72512172262894L105.9581857733293,86.73619135328799L106.18410941037264,86.74986765019533L106.36484832000733,86.73583660715538L106.95224977632002,86.72248974515533L107.04261923113737,86.7184831624311L107.08780395854603,86.69969929463751L107.35891232299805,86.71631309717432L107.40409705040672,86.7387881669962L107.44928177781537,86.74174621879529L107.53965123263272,86.75439345955289L107.63002068745006,86.75007858439903L108.1722374163541,86.74095857621657L108.98556250971015,86.74820117410451L109.25667087416215,86.7233413149546L109.52777923861417,86.75033309330158L109.57296396602284,86.73936837312141L109.84407233047486,86.76324720537887L110.02481124010953,86.72512664537216L110.11518069492686,86.70443526736267L110.2055501497442,86.72523324369972L110.47665851419622,86.74466579825845L110.61221269642223,86.71602923791603L110.70258215123957,86.68802955890224L110.83813633346558,86.72453459443147L110.97369051569157,86.73203517334699L111.10924469791759,86.74597180848069L111.51590724459562,86.70220584751043L111.60627669941296,86.66923644861187L112.14849342831698,86.6944236691677L112.19367815572565,86.70803346650669L112.23886288313432,86.70900095977625L112.87144906685569,86.71922645126953L113.05218797649037,86.73711521249416L113.23292688612504,86.72299902722614L113.41366579575973,86.71713796192348L113.4588505231684,86.74210838937161L113.5944047053944,86.72800961295157L113.68477416021173,86.72940105799238L113.77514361502907,86.75283723666226L114.13662143429843,86.75217743273849L114.22699088911577,86.77406535649261L114.36254507134177,86.75421241628932L114.49809925356777,86.7446134984515L114.63365343579379,86.7624857780372L114.72402289061112,86.74158713069166L114.85957707283714,86.74353162572896L114.99513125506314,86.74434039767416L115.71808689360185,86.75159899319755L116.03437998546254,86.794075984966L116.26030362250587,86.76824499589094L116.30548834991455,86.78169505575801L116.35067307732322,86.7757371887942L116.44104253214056,86.7675501747902L116.48622725954922,86.75889056139657L116.57659671436657,86.75244321681464L116.66696616918391,86.73947429477052L116.84770507881859,86.74955123229843L117.02844398845325,86.76016234641708L117.2543676254966,86.75991838792956L117.34473708031395,86.78298957731681L117.66103017217463,86.77323451481708L117.75139962699197,86.7412474978619L117.79658435440064,86.7355116895387L117.93213853662664,86.73338207543222L118.02250799144397,86.70658416857371L118.20324690107866,86.72307566856901L118.33880108330467,86.74503381382362L118.42917053812201,86.73099902580311L118.51953999293934,86.737109714609L118.56472472034801,86.75140874474069L119.0165719944347,86.74843389113096L119.06175672184337,86.74570481423696L119.24249563147805,86.72664605500462L119.37804981370407,86.73464656884775L119.51360399593007,86.73268283459221L119.55878872333872,86.73503632393684L119.69434290556474,86.73097708566772L119.7395276329734,86.76044042048771L119.82989708779074,86.76678379974453L120.05582072483409,86.78190430615741L120.10100545224277,86.77045942810786L120.41729854410345,86.74510808728225L120.46248327151211,86.76102836795522L120.6432221811468,86.74373758477054L120.73359163596413,86.7260165842953L120.82396109078147,86.72856790009817L121.00470000041615,86.69095323585375L121.45654727450284,86.69797225530341L121.54691672932017,86.70605715413227L121.63728618413752,86.6998143365238L121.68247091154619,86.70989471911679L121.86320982118087,86.73288833843161L121.99876400340688,86.73366236141804L122.36024182267622,86.74281259942161L122.5409807323109,86.73335715945943L122.67653491453692,86.73282441240336L123.17356691603227,86.74841344855173L123.35430582566694,86.73239282280291L123.44467528048429,86.73184433941884L123.58022946271029,86.71877402775571L123.67059891752764,86.70876664861704L123.71578364493631,86.71779954062248L123.80615309975364,86.72981047460766L123.89652255457098,86.73491798798396L123.94170728197965,86.71693253544441L124.03207673679698,86.71859762828583L124.12244619161432,86.7405419557139L124.167630919023,86.74486203237284L124.34836982865767,86.7368200769833L124.48392401088367,86.73056311411595L124.6194781931097,86.7255242649556L124.84540183015302,86.73406786662866L125.38761855905706,86.74471167449532L125.56835746869174,86.75611498439231L125.70391165091775,86.72749804664173L126.15575892500445,86.74637930007769L126.42686728945645,86.72801174899038L126.4720520168651,86.72643590266776L126.56242147168247,86.73433548547287L126.69797565390847,86.72413358268945L126.83352983613447,86.75107164990952L126.87871456354314,86.79057210745495L126.92389929095181,86.77152235386087L127.3757465650385,86.75211042411624L127.42093129244716,86.76711832282429L127.46611601985583,86.74952070721517L127.5564854746732,86.74946166052143L128.09870220357723,86.72457754976449L128.1438869309859,86.69728004389579L128.18907165839457,86.74452028873642L128.23425638580323,86.74819927101116L128.59573420507257,86.76720488727881L129.00239675175058,86.73507994062325L129.77053711769798,86.73206197965689L130.40312330141933,86.7534060614415L130.53867748364533,86.72066299377575L130.58386221105403,86.74134080300124L130.6290469384627,86.73797966960166L130.71941639328003,86.75284089432073L131.0808942125494,86.75220548690679L131.17126366736673,86.75702773346987L131.26163312218407,86.74983084565976L131.3520025770014,86.74515130422346L131.8038498510881,86.73604795684138L132.16532767035744,86.74895732168294L132.2105123977661,86.7496555592831L132.70754439926148,86.7572872236316L133.06902221853082,86.76561152809559L133.34013058298285,86.75071594536763L133.38531531039152,86.74941239533652L133.47568476520885,86.74367362380748L133.5660542200262,86.7514763721742L133.79197785706953,86.75378233480731L134.65048767783426,86.73286450926352L134.7408571326516,86.74984272212865L134.92159604228627,86.73452384810768L134.96678076969494,86.76657747106086L135.41862804378164,86.77702199017732L135.50899749859894,86.7739582639293L135.64455168082497,86.7997309063695L135.68973640823364,86.78304434296604L135.7349211356423,86.74161043305392L136.186768409729,86.74190086683036L136.23195313713768,86.7513930146586L136.36750731936368,86.75901330070407L136.45787677418102,86.74670631702324L136.63861568381571,86.72330214354426L136.72898513863305,86.74232255533244L136.86453932085905,86.74823135820968L136.9549087756764,86.7650513101739L137.04527823049372,86.77021772492486L137.13564768531106,86.75684998317737L137.54231023198906,86.77959919319684L137.72304914162376,86.79473204933866L137.90378805125843,86.77633094196287L137.99415750607577,86.77283363563058L138.12971168830177,86.7705367271284L138.2652658705278,86.76026355878102L138.5363742349798,86.79471115725094L138.58155896238847,86.79114456201559L138.76229787202317,86.79850082970064L138.89785205424917,86.77880931447255L139.03340623647514,86.77760723670734L139.12377569129248,86.77444147878681L139.53043823797051,86.77857177083926L139.66599242019655,86.79803052986026L139.7111771476052,86.82794299246785L139.75636187501388,86.79355435618449L139.80154660242255,86.7416804875317L139.93710078464855,86.74827420735512L140.11783969428322,86.73408939036354L140.38894805873525,86.74071747145105L140.43413278614392,86.7464229365481L140.56968696836992,86.74514718725356L140.93116478763926,86.72550076556267L141.1570884246826,86.72863527082531L141.29264260690863,86.75970517938701L141.42819678913463,86.74494213875003L141.4733815165433,86.77508921528418L141.69930515358666,86.79107863750224L141.74448988099533,86.79597839866497L141.83485933581267,86.71771338937089L142.10596770026467,86.74022074538671L142.2415218824907,86.77309581048972L142.37707606471668,86.79897127436459L142.42226079212534,86.81360705483115L142.60299970176,86.79307770178667L143.46150952252475,86.78933783098142L143.64224843215942,86.76599647172169L143.73261788697678,86.785665956666L143.95854152402012,86.7854974343112L144.18446516106343,86.77971150239043L144.77186661737616,86.76631938023374L144.95260552701083,86.7645877240431L145.08815970923683,86.80657803290819L145.7659306203669,86.79698894846504L146.26296262186224,86.78973564255315L146.3081473492709,86.79635472809213L146.4437015314969,86.77219109775375L146.71480989594892,86.77292036719675L147.03110298780962,86.77943059630607L147.07628771521829,86.79739648100062L147.12147244262695,86.81447194697499L147.16665717003562,86.82794971787295L147.2118418974443,86.79439273112887L147.25702662485298,86.81749686204637L147.6185044441223,86.80215508393856L148.6577531745217,86.83244535663164L148.70293790193037,86.82297161686645L148.74812262933904,86.79674919974661L149.06441572119974,86.79791674473326L149.56144772269508,86.78556265350326L149.6518171775124,86.75871634986916L150.19403390641645,86.76359586680117L150.23921863382512,86.76734161485824L150.37477281605115,86.83473212000557L150.46514227086848,86.84509167246054L150.51032699827715,86.80919216357381L150.60069645309449,86.77990173227575L151.4592062738592,86.75238524919213L151.68512991090253,86.74645299668302L151.82068409312856,86.76454458401074L151.95623827535456,86.74791197131267L152.3629008220326,86.7661451534002L152.40808554944127,86.78019562540845L152.67919391389327,86.82115727403902L152.76956336871058,86.79544679478083L152.81474809611927,86.77354686007901L153.08585646057128,86.78595218262612L153.22141064279728,86.78389276459414L153.26659537020595,86.79118568141106L153.4925190072493,86.77990991365206L153.58288846206665,86.7903876074786L153.67325791688398,86.79818524463934L153.80881209911,86.80370540195814L153.85399682651868,86.81882201188738L154.21547464578802,86.818437601758L154.4413982828314,86.80392193092595L154.5317677376487,86.75700668385623L154.57695246505736,86.77707992284857L154.62213719246603,86.77550806401965L155.1191691939614,86.77607279855141L155.5710164680481,86.76372888081792L155.93249428731747,86.68282077995349L156.7006346532648,86.72187537999213L156.92655829030818,86.71253231453106L157.0169277451255,86.76085811137051L157.06211247253418,86.71822024924211L157.19766665476018,86.75824876267566L157.6495139288469,86.75705216158433L157.9206222932989,86.77064812230547L158.10136120293356,86.77325218790769L158.3272848399769,111.31525768675506L158.41765429479426,-94.39405718888588L158.5080237496116,120.4153706879701L158.59839320442893,255.8006366792407L158.68876265924627,166.2019957416954L158.86950156888096,129.9972234537505L158.91468629628963,49.77573146655553L159.05024047851563,208.45945273123021L159.14060993333297,344.76696049008274L159.32134884296764,128.83129608111878L159.411718297785,187.66043159073647L159.547272480011,189.09436105265942L159.59245720741967,78.39742245419954L159.68282666223698,-35.3767420184212L159.90875029928034,27.191439506192467L159.99911975409768,-69.50759987197128L160.45096702818438,-58.42155164240276L160.99318375708842,17.69879613659512L161.12873793931442,-39.3782096291942L161.21910739413175,49.435755869915496L161.3094768489491,126.8577016495548L161.39984630376642,65.5599419474808L161.49021575858376,-6.6157736028157785L161.8968783052618,-4.372904231501366L162.07761721489646,46.73059083573236L162.1679866697138,-13.331062895390573L162.66501867120917,54.910463909451366L162.84575758084384,28.575341251160978L163.2976048549305,-63.64081797671537L163.70426740160855,-45.805406875421255L163.9301910386519,24.525083598473316L164.24648413051258,60.45608709304666L164.3820383127386,79.37370055350934L164.42722304014728,129.3753069677106L164.6983314045993,48.86566573249395L164.74351613200795,15.97642419838229L164.83388558682526,112.78008013945228L164.9694397690513,197.8271524209541L165.19536340609463,132.43121028505274L165.33091758832063,140.4309570394583L165.3761023157293,111.95560239726355L165.46647177054666,105.9974643670261L166.18942740908537,169.0154348696981L166.50572050094607,183.27519800594408L166.64127468317204,197.55787998958007L166.6864594105807,137.9071445482889L167.0027525024414,142.76609726431323L167.04793722985008,100.99692817302198L167.09312195725875,67.85643941923885L167.36423032171075,96.5976336788475L167.49978450393678,55.920536416969426L168.58421796174483,31.04518343671907L168.71977214397083,99.60860436540301L168.81014159878816,107.82505883573211L169.03606523583153,126.15966245691024L169.17161941805753,125.6253034956718L169.2168041454662,82.8660096162972L169.30717360028353,46.626852979994624L169.3523583276922,50.881916111574995L169.6686514195529,39.375984245951315L169.75902087437024,93.12522711315748L169.84939032918757,129.33072192856184L170.25605287586558,125.60700254239661L170.48197651290894,133.46452804121427L170.88863905958695,173.34484434537757L170.97900851440428,159.36787270509322L171.06937796922165,89.91205035113528L171.25011687885632,122.46184267190716L171.38567106108232,91.68819060957257L171.973072517395,133.5595562932988L172.0182572448037,151.78979954037686L172.06344197221236,133.0948704701206L172.33455033666436,148.53284845813758L172.69602815593373,156.95639804120822L172.96713652038574,112.22708307039443L173.01232124779443,131.22327533160748L173.0575059752031,147.22054534688442L173.23824488483777,92.58215967837705L173.4641685218811,119.9687637453072L173.78046161374178,140.0309150461991L174.14193943301115,161.29273773938093L174.32267834264582,92.69156583936622L174.50341725228049,123.19580752814193L174.59378670709785,117.14502095710165L174.86489507154985,137.58582527627988L175.00044925377586,103.99382665303213L175.09081870859322,63.75594179312027L175.18118816341052,93.37435996328549L175.27155761822786,120.63730593265522L175.40711180045386,71.31747007778866L175.4974812552712,65.68701944257343L175.63303543749723,107.36564334014408L176.17525216640126,70.80764921718635L176.4011758034446,100.13363782031715L176.44636053085327,73.13546156151897L176.62709944048797,99.5665626363212L176.9433925323486,82.45046755890237L177.44042453384398,112.25491322282323L177.57597871607,66.3543035608614L177.62116344347868,43.633174632811375L177.75671762570468,93.13507796524104L177.98264126274802,60.59093275831174L178.25374962720005,52.96133138894612L178.29893435460872,32.48092526658519L178.4796732642434,97.21532266866471L178.57004271906075,105.99356036550489L178.84115108351273,131.5691993742523L178.8863358109214,143.42898314445006L179.15744417537343,141.465542425656L179.4737372672341,109.45706275366649L179.74484563168613,69.22811299191345L179.88039981391213,95.85320360639942L180.15150817836417,62.51035202992374L180.6485401798595,104.97129981446967L180.73890963467684,108.08478326744901L180.7840943620855,102.84748512610373L181.01001799912885,74.68217839128792L181.05520272653752,79.43651288813604L181.19075690876355,162.55522079582292L181.28112636358088,184.49086043690087L181.32631109098955,174.28822719763122L181.41668054580688,92.42062408096527L181.64260418285025,109.48072376060546L182.09445145693692,115.02671057787148L182.36555982138893,143.57312442256588L182.45592927620626,141.5739997011809L182.50111400361493,111.07602038272412L182.68185291324963,130.8877737139157L182.7270376406583,155.01986725339106L182.90777655029297,108.5094519906893L182.9981460051103,101.89887918719118L183.26925436956233,102.77901791336032L183.314439096971,95.07170657610233L183.449993279197,92.30930623019643L183.6307321888317,88.47442814575929L184.1729489177357,124.88266873789172L184.39887255477905,102.79817762670604L184.4440572821877,105.20257237796447L184.53442673700505,101.69884937745546L184.94108928368308,68.92877817797753L184.98627401109175,65.85996267133612L185.25738237554378,61.848281442563234L185.30256710295245,58.17140633997593L185.9351532866738,84.4623473004178L186.11589219630847,80.6528416381266L186.20626165112583,114.7292268626164L186.29663110594316,126.36206399719968L186.43218528816917,99.60296851854834L186.56773947039517,125.03506694949051L186.9744020170732,147.59794843922137L187.2455103815252,143.317326265161L187.33587983634254,156.88411896854825L187.8329118378379,102.7828319652243L187.87809656524658,74.04851805355402L188.14920492969858,65.39001227789107L188.46549802155928,95.05664339782862L189.54993147936733,103.61157328788448L189.595116206776,82.80678296194594L189.68548566159336,73.5870642633821L189.82103984381936,109.64901399366433L189.9114092986367,121.34171139671017L190.86028857421874,124.98289331804526L190.99584275644474,119.30233261951273L191.17658166607941,99.28504422303916L191.2217663934881,119.86325299329998L191.26695112089678,132.27698188493298L191.3573205757141,124.42668785006734L191.53805948534878,101.445789512682L191.67361366757478,120.6250653265873L191.76398312239215,101.51734935830939L191.85435257720948,74.1492391096628L192.17064566907015,55.46155439418345L192.35138457870485,95.20052139270528L192.48693876093083,88.41923958618206L192.7128623979742,116.94223370785465L193.07434021724353,142.0152720240519L193.25507912687823,99.20758493446898L193.34544858169556,88.41697421635507L193.4358180365129,117.32532907346396L193.48100276392157,140.52613988473172L193.7521111283736,137.46569457193783L193.93285003800827,106.16536303294342L194.0232194928256,79.95323460469871L194.11358894764294,101.4860813494573L194.24914312986894,108.0239718716499L194.65580567654695,97.199663487303L194.7461751313643,75.15089407595312L194.79135985877298,74.6413045961673L194.97209876840765,101.28433183985317L195.19802240545098,115.13700119269078L195.28839186026835,131.6721850458817L195.74023913435505,102.55730149804391L195.83060858917239,77.01741616989341L195.9209780439897,100.01275400850122L196.5083795003024,73.03245931807176L196.68911840993707,107.21741196014163L196.77948786475443,112.40351203409676L197.2313351388411,80.12874273314209L197.45725877588447,108.84333738944845L197.77355186774514,127.12623150299291L197.90910604997114,100.14951555395947L197.99947550478848,76.08704765597884L198.90317005296188,114.48613845033228L198.94835478037055,113.78088153864407L198.99353950777922,91.48080643777183L199.08390896259655,78.86658133816697L199.21946314482256,110.28917686035302L199.3098325996399,120.50068669106908L199.5809409640919,135.39622710452753L199.76167987372656,94.40916186424894L200.07797296558726,79.58667983937337L200.12315769299593,62.956275010370916L200.1683424204046,53.78510233608819L200.39426605744796,78.1644881305872L200.43945078485663,80.59654336578588L200.6201896944913,100.17543849826438L201.11722169598664,107.49905386881657L201.38833006043868,125.96924461149501L201.65943842489068,105.19191967054789L201.7949926071167,121.79807708409294L201.88536206193405,95.06941998389729L202.15647042638605,122.4995417738662L202.29202460861205,98.59508901789168L202.47276351824675,119.91793715837676L202.65350242788142,93.74312610682153L202.74387188269876,95.5958388647091L202.87942606492476,127.23652653151878L202.9697955197421,97.62259211272506L203.15053442937676,109.67109292317002L203.2409038841941,124.36296146024011L203.37645806642013,112.56505251204916L203.60238170346346,124.025209001573L203.78312061309813,109.54297330619382L203.82830534050683,96.79864286162669L203.91867479532416,87.35863254573528L204.3253373420022,73.0585958022792L204.37052206941087,75.26310447601477L204.8675540709062,88.90994596369954L204.95792352572354,81.8842624244261L205.0031082531322,87.32560549701282L205.31940134499288,78.48537558362085L205.40977079981025,83.36005586518235L205.4549555272189,75.35419769508162L205.50014025462758,71.47722906790356L205.54532498203625,80.47587951217257L205.72606389167092,86.04459638683377L205.81643334648825,87.81652290301089L206.81049734947896,101.69996303113132L206.946051531705,98.80398673902414L207.35271407838303,99.05060824905523L207.48826826060903,89.49397336717317L207.57863771542637,93.33680051798169L207.8045613524697,85.16116284047564L207.84974607987837,79.1000575781593L207.94011553469574,87.10945428499713L208.30159335396505,91.97994794005302L208.5275169910084,83.21174403402179L208.84381008286908,89.69432721517084L210.10898245031183,93.25849205430605L210.42527554217253,96.07047893293908L210.8771228162592,86.74918768249208L210.9223075436679,81.50615584391508L211.14823118071124,88.896145351251L211.55489372738924,92.1470007859929L211.6000784547979,83.0560661894312L212.0519257288846,95.11296669681623L212.09711045629328,101.29260809408645L212.14229518370195,94.62529634393826L212.23266463851928,99.50538722226044L212.32303409333662,89.08476114489311L212.41340354815398,92.51895536314329L212.45858827556265,93.16212860608277L212.50377300297131,82.20976288569805L212.59414245778865,86.30933858802945L213.40746755114466,83.05391860009593L213.63339118818803,79.18526454501063L213.85931482523137,86.39165785650323L213.9948690074574,78.8667656705893L214.1304231896834,75.08765142854034L214.35634682672674,73.23367451116722L214.8533788282221,81.17431851198191L215.2600413749001,77.90841185974821L215.39559555712611,75.01199634383258L215.4407802845348,83.55476426521386L215.84744283121282,89.68530713082744L216.11855119566485,82.37413995707239L216.79632210679486,89.01584535283482L216.84150683420353,92.00768876063938L216.93187628902086,94.86107680279194L217.11261519865556,96.54885540288919L217.29335410829023,98.58091319151326L217.42890829051623,89.44303060223992L217.70001665496827,93.01650402216082L217.7903861097856,85.51577440816344L218.19704865646364,91.63764967623466L218.37778756609828,94.77529319604706L218.6488959305503,85.5897611640688L218.87481956759365,82.34811676579456L219.14592793204568,89.44360261920943L219.32666684168035,93.1825328675653L219.55259047872372,85.31560860590126L219.8688835705844,90.91167477595484L220.04962248021906,103.39765127940234L220.45628502689706,91.90581792412465L220.5918392091231,102.52395138330053L221.13405593802713,102.18371714635136L221.3147948476618,100.97899566641969" fill="none"></path></g></g></g></g><g opacity="0.2"><g><g><g><path style="fill: none;" stroke="rgb(255, 112, 67)" stroke-width="2px" d="M23.45087352509932,-428.4666056753298L23.721981889551337,32.48281820820225L24.444937528090044,-159.81271266083667L25.93603353257613,-220.75145167497482L25.981218259984797,30.981230058155177L26.207141897028144,-72.52349909504719L26.88491280815818,249.674070336959L27.246390627427537,172.79029883190742L27.381944809653543,-231.93676486866485L27.743422628922893,-234.0249678344801L27.96934626596624,100.65629671782871L28.330824085235598,152.30648694965336L28.511562994870275,-47.95004796520527L28.918225541548296,202.22582136040103L29.41525754304366,150.1903145552973L29.641181180087003,232.55320707194693L30.228582636399704,-101.64130349314894L30.680429910486396,37.949272941801155L30.90635354752974,-28.99998121522458L30.99672300234708,-88.75764429416319L31.04190772975575,24.06074020522584L31.222646639390423,135.77935591247552L31.58412445865978,118.47923890954L31.945602277929133,-8.521986173755494L31.9907870053378,40.24317697692197L32.035971732746475,230.22008223750413L32.71374264387651,267.3672421336466L32.984851008328526,136.78715930844572L33.21077464537187,-151.29620032005573L34.521131740223275,-275.8105794748726L34.70187064985796,141.90340664061011L34.88260955949263,163.77349530764576L34.97297901430997,127.889000756607L35.83148883507469,-73.05737645996425L36.05741247211803,146.65882404821124L36.1025971995267,-36.473735520355405L36.32852083657005,192.0756414245755L36.55444447361339,62.35904860510925L36.64481392843073,178.69869411823836L37.00629174770008,179.4047256740029L37.05147647510875,173.87904849813722L37.32258483956077,73.00911776213763L37.367769566969436,182.20646349143547L37.4129542943781,171.81150460690338L37.54850847660411,171.22814121933808L37.95517102328214,147.00355047067518L38.31664884255149,147.73232773186777L39.0396044810902,144.22721309620334L39.22034339072488,158.06894670464533L39.49145175517689,75.96367091860661L39.672190664811566,79.31903942053823L39.76256011962891,164.42438121189022L40.30477684853294,156.28625650796806L40.349961575941606,70.78288452311403L41.07291721448031,73.21994429711027L41.66031867079301,74.16678877377346L41.70550339820168,149.1369947374848L41.79587285301902,69.5969368051072L42.06698121747104,147.49724232680342L42.47364376414906,135.9359461239255L42.564013218966394,67.0163872169202L42.60919794637506,138.16477514601436L42.74475212860107,65.7725372794169L43.01586049305309,128.29026629982081L43.42252303973111,58.74479495826779L43.55807722195712,124.43367227542493L43.60326194936579,58.996094628370244L44.009924496043816,63.12829364193465L44.05510922345248,123.9383046832229L44.732880134582516,64.80036739275147L44.82324958939986,117.58546059954625L44.9136190442172,71.14009321417882L45.546205227938565,63.684723770386384L45.77212886498191,129.8063072268796L45.86249831979925,76.86207447454392L45.99805250202525,133.7418001936667L46.35953032129461,132.48387264394435L46.630638685746625,81.39220899716268L46.72100814056397,126.04112835695705L46.85656232278997,114.45828697598749L47.12767068724199,62.19877463269536L47.35359432428533,24.005744619622817L47.80544159837203,22.294507237452393L47.89581105318936,152.1460164623481L48.076549962824046,9.029537689223275L48.34765832727606,27.555003645887922L48.528397236910735,64.65408885360206L48.5735819643194,54.69765473568998L48.799505601362746,65.74800507497625L48.88987505618009,79.37577148318147L48.93505978358876,114.9320236381453L49.02542923840609,60.397708507174784L49.11579869322343,104.86737770204371L49.1609834206321,74.7428828968566L49.38690705767545,91.55527562030302L49.43209178508411,100.88396636549187L49.83875433176214,107.03852781701266L50.10986269621416,26.00180711236564L50.2002321510315,103.45304573676867L50.42615578807484,100.50094097719642L50.65207942511819,249.45127247210314L50.74244887993552,326.00499900357613L51.28466560883955,124.44131134520269L51.60095870070024,65.7211861517995L51.64614342810891,79.02007595678036L51.73651288292625,64.34284142263373L51.781697610334916,111.29192471008895L51.826882337743584,79.34464977713296L51.87206706515226,110.14484942409668L51.96243651996959,52.429061818579285L52.0979907021956,81.6364689679061L52.27872961183028,27.81688296314283L52.50465324887362,138.68156643437516L52.64020743109963,-7.755170775587203L52.82094634073431,-36.39658734699651L52.95650052296031,124.81128099871427L53.09205470518632,-37.04697303151744L53.272793614821005,168.80050344113417L53.317978342229665,114.0006681079211L53.49871725186435,141.80546719174288L53.724640888907686,13.846396370864795L53.76982561631636,143.05763864164675L54.08611870817705,175.3404189824133L54.22167289040305,-31.147338736344125L54.40241180003773,125.26777437240273L54.53796598226374,18.679805179358766L54.899443801533096,245.75163310495577L55.080182711167765,126.82908875743811L55.215736893393775,-141.82316782395947L55.30610634821112,-8.398674865911715L55.622399440071796,129.63681491956083L55.893507804523814,72.47685717882698L55.98387725934115,144.14471257180278L56.029061986749824,80.65308344043976L56.2098008963845,-22.614604984528995L56.39053980601918,180.63226487552143L56.52609398824519,96.04748388544675L56.571278715653854,71.02561078445517L56.61646344306252,19.558133845891803L56.7972023526972,134.12328561981332L57.20386489937522,39.938728961195494L57.384603809009896,135.95098844561136L57.42978853641857,75.77365709713044L57.47497326382724,73.95502343356974L57.56534271864458,82.55266516075913L57.61052744605324,101.64802787543228L57.88163581050526,86.02214472393214L58.062374720139935,7.523626211565784L58.1075594475486,19.553381758518356L58.197928902365945,147.18312220542288L58.28829835718329,158.6405263447237L58.423852539409296,57.8936978961834L58.469037266817956,16.338519617426527L58.514221994226624,10.743990769616346L58.5594067216353,38.59928346152944L58.69496090386131,102.49641213876609L58.875699813495984,108.09550995780093L59.10162345053933,68.43825284853123L59.146808177947996,102.525741986305L59.19199290535667,95.80593582020443L59.46310126980868,131.96406217225228L59.7342096342607,87.20844717364916L59.91494854389537,71.0860212485653L60.05050272612139,108.09133312310954L60.23124163575606,126.05952929678652L60.41198054539073,79.37442714267452L60.502350000208075,113.48296927806192L60.72827363725142,113.8506950888137L61.81270709505948,-36.43088812803791L61.94826127728549,-70.15685953912856L62.129000186920166,173.14396132243223L62.2193696417375,54.966587151046525L62.40010855137218,133.97814329403593L62.49047800618951,114.91042129208527L62.85195582545887,101.7203444622117L63.12306418991089,99.3960619046316L63.30380309954557,104.11440767122285L63.620096191406255,99.28611360940185L63.665280918814915,101.20897073210651L63.71046564622358,99.72232843279862L63.75565037363225,102.58771921004914L63.9815740106756,101.15126502750142L64.07194346549295,97.8138990761195L64.20749764771895,101.0280323256142L64.25268237512762,98.82642061598187L64.34305182994495,99.09087606481292L64.70452964921431,98.9503634512266L64.74971437662298,97.92719527049879L64.88526855884899,97.43700137943716L65.20156165070966,101.74089813335132L65.33711583293568,99.9209960554917L65.7437783796137,97.36858561325171L65.83414783443105,101.59926806463264L65.92451728924839,100.31759079703714L66.06007147147439,99.41346240501404L66.10525619888305,99.3711956248756L66.28599510851772,98.51065334251173L66.51191874556108,99.5407638584024L66.55710347296976,101.60097327794014L66.73784238260443,99.70191232208295L66.7830271100131,100.86610048211665L66.82821183742178,97.82141487746539L66.87339656483043,101.0580437225264L67.05413547446511,98.80640557429453L67.09932020187378,100.69232772316377L67.23487438409978,98.86276515189364L67.28005911150845,98.46674387653124L67.64153693077782,97.49200857728376L67.82227584041249,86.6437008922939L67.91264529522982,86.64317141864903L68.00301475004716,86.64456834922069L68.04819947745582,86.69065555749751L68.40967729672519,86.64150963959878L68.45486202413386,86.65414800355086L68.59041620635986,86.64884567448154L68.95189402562922,86.65460557061044L69.04226348044655,86.64666871377852L69.22300239008123,86.65317413827663L69.2681871174899,86.6469350137876L69.49411075453324,86.64757123074844L69.81040384639392,86.65091354708859L70.3074358478893,86.67686467836997L70.39780530270663,86.64615007078393L70.66891366715865,86.65681011039196L70.71409839456732,86.64527379301828L70.80446784938465,86.64596628469802L70.894837304202,86.66754830933178L71.07557621383667,86.64873870785316L71.25631512347134,86.65035638270903L71.34668457828867,86.65319278486007L71.57260821533202,86.67224523854821L71.6177929427407,86.64607771757393L71.66297767014937,86.64823536175636L72.02445548941873,86.65922389387032L72.29556385387073,86.64870643921475L72.47630276350542,86.65129317812877L72.52148749091408,86.65515290924543L72.56667221832275,86.69173672436868L72.97333476500077,86.68021090267669L73.19925840204412,86.65539241176928L73.47036676649614,86.67240780995834L73.83184458576548,86.65525228325299L73.92221404058283,86.65605051334305L74.8259085887562,86.65413181340355L74.87109331616487,86.65630955569988L75.05183222579956,86.65397962601891L75.09701695320823,86.65312143655575L75.1422016806169,86.65586538738287L75.95552677397295,86.6524881226558L76.1814504110163,86.64522231951548L76.49774350287697,677.1288601395363L76.54292823028564,422.0772848548144L76.81403659473766,86.68369837206161L76.904406049555,86.6434339223477L77.13032968659834,86.6455156403221L77.2206991414157,86.65359876676067L77.31106859623301,86.65579571392138L77.4918075058677,86.65361238881563L78.30513259922374,86.68278859743945L78.39550205404107,86.6503082588919L78.48587150885842,86.67819338701057L78.84734932812778,86.66827083652616L78.98290351035378,86.64916422958672L79.2540118748058,86.64821258389395L79.34438132962313,86.64794125935641L79.43475078444048,86.67980056618475L79.47993551184915,86.64780861180473L79.61548969407515,86.68055949329653L79.84141333111849,86.66109257183746L80.20289115038786,86.64940205726776L80.51918424224854,86.65128614378891L80.79029260670055,86.64787024602066L80.97103151633523,86.64817361588425L81.0162162437439,86.67493079318885L81.06140097115257,86.65015227519686L81.10658569856123,86.65626511653694L81.37769406301325,86.66559008310162L81.82954133709994,86.65876833662212L81.91991079191727,86.65915578359545L82.05546497414329,86.65223667291977L82.10064970155196,86.64704142213502L82.23620388377797,86.67019612418078L82.50731224822998,86.70073866958066L82.59768170304731,86.6582137403349L82.73323588527333,86.65178692179336L82.86879006749933,86.6488812928056L83.00434424972535,86.67988989113537L83.04952897713402,86.6529302811614L83.86285407049006,86.65349414491226L84.35988607198541,86.65477908432703L84.5406249816201,86.65497470596893L85.17321116534146,86.65548229500087L85.21839589275012,86.654575646752L85.35395007497614,86.66455547686097L85.39913480238481,86.65849634214744L85.48950425720214,86.71395719908705L85.53468898461082,86.69631384649509L86.4383835327842,86.72029603255223L86.48356826019287,86.66219562332154L86.52875298760155,86.65564776947191L86.75467662464489,86.65340281015023L86.89023080687089,86.67115636740003L87.07096971650557,86.67904655194526L87.16133917132291,86.65560355362133L87.34207808095759,86.68183114562491L87.52281699059228,86.6724569386812L87.70355590022693,86.66093245686346L88.42651153876565,86.68570427548417L88.83317408544367,86.72267609586173L88.87835881285234,312.3711245552469L89.3753908143477,86.68549927472247L89.73686863361705,86.68017796410115L89.78205336102572,86.67633654459937L89.91760754325173,86.67818009992416L90.00797699806907,86.7308106958031L90.05316172547775,86.68841517607956L90.41463954474709,86.67518760242191L90.45982427215576,86.66361309863183L90.77611736401644,86.71263217510067L90.86648681883379,86.7175329885169L91.22796463810313,86.73749823154428L91.45388827514648,86.70779656889839L91.49907300255515,86.67875769738616L91.63462718478117,86.75501463105017L91.95092027664184,86.67690721937768L92.49313700554588,86.72631709250554L92.71906064258923,86.66611028928286L92.7642453699979,86.69189147984564L92.85461482481523,86.6631843388688L92.8997995522239,86.78475849973525L93.17090791667592,86.68224416186538L93.4872010085366,86.69299989082675L93.53238573594527,86.73780081981454L93.93904828262329,86.68088988395766L94.11978719225797,86.6602372854352L94.21015664707531,86.68281695811129L94.39089555670999,86.688592151138L94.797558103388,86.70478989106024L95.1138511952487,86.72587046775239L95.15903592265737,86.695502552631L95.3849595597007,86.68441297166663L95.74643737897006,86.61621482339216L95.83680683378739,86.66698891182845L96.15309992564809,86.6766822321583L96.19828465305676,86.76020307080744L96.37902356269143,86.73182151927564L96.60494719973478,86.66237728793989L96.74050138196078,86.70229794825008L96.83087083677812,86.6976260300198L96.96642501900413,86.72029871230075L97.10197920123012,86.68080122894415L97.2827181108648,86.71734964905575L97.64419593013417,86.77570362949002L98.00567374940351,86.6548471946019L98.09604320422085,86.68912151312665L98.1864126590382,86.70606143173242L98.3219668412642,86.74003773989064L98.36715156867287,86.72081713198294L98.6382599331249,86.7246284043139L98.68344466053357,86.67232406781713L99.0449224798029,86.75343279783073L99.18047666202892,86.65086151530484L99.22566138943759,86.66508081922684L99.27084611684626,86.69520733366917L99.31603084425493,86.72740864340221L99.40640029907227,86.71220073558912L99.54195448129828,86.72609121203662L99.85824757315895,86.68809505778775L99.90343230056763,86.62458088661184L100.21972539242832,86.67108077616057L100.26491011983698,86.72364303845228L100.31009484724565,86.69700566823771L100.71675739392367,86.64090948758675L100.89749630355836,86.64783920560032L100.98786575837569,86.68778487689669L101.03305048578436,86.68413461278924L101.12341994060169,86.69095356786404L101.34934357764504,86.67856319230616L101.39452830505371,86.72370065304543L101.48489775987105,86.72332325512903L101.53008248727971,86.70545692512904L101.57526721468838,86.7326082487783L101.80119085173173,86.7282705175196L102.4337770354531,86.71709987416253L102.84043958213113,86.6734538051302L103.11154794658314,86.75364192987138L103.42784103844383,86.7015989805114L103.4730257658525,86.76103669590917L103.87968831253052,86.71159913204664L104.1959814043912,86.6924333473274L104.60264395106923,86.73834291060865L104.73819813329524,86.69351630069758L105.05449122515591,86.74889196396552L105.14486067997325,86.72479644687726L105.32559958960793,86.69250190422702L105.77744686369462,86.68617512963016L105.82263159110329,86.76001191541309L105.9581857733293,86.75279579927656L106.18410941037264,86.77038209555633L106.36484832000733,86.71479004259548L106.95224977632002,86.70246945215527L107.04261923113737,86.71247328834474L107.08780395854603,86.67152349294712L107.35891232299805,86.74123380097956L107.40409705040672,86.77250077172903L107.44928177781537,86.7461832964939L107.53965123263272,86.77336432068924L107.63002068745006,86.74360627166827L108.1722374163541,86.72727856394287L108.98556250971015,86.75906507093643L109.25667087416215,86.68605152622973L109.52777923861417,86.79082076082203L109.57296396602284,86.7229212928512L109.84407233047486,86.79906545376505L110.02481124010953,86.66794580536208L110.11518069492686,86.67339820034844L110.2055501497442,86.75643020820526L110.47665851419622,86.7738146300966L110.61221269642223,86.67307439740242L110.70258215123957,86.64603004038152L110.83813633346558,86.77929214772533L110.97369051569157,86.74328604172027L111.10924469791759,86.76687676118127L111.51590724459562,86.63655690605499L111.60627669941296,86.61978235026406L112.14849342831698,86.73220450000147L112.19367815572565,86.72844816251515L112.23886288313432,86.71045219968057L112.87144906685569,86.73456468850945L113.05218797649037,86.7639483543311L113.23292688612504,86.70182474932412L113.41366579575973,86.7083463639695L113.4588505231684,86.7795640305438L113.5944047053944,86.70686144832149L113.68477416021173,86.7314882255536L113.77514361502907,86.78799150466706L114.13662143429843,86.75118772685286L114.22699088911577,86.8068972421238L114.36254507134177,86.72443300598441L114.49809925356777,86.73021512169478L114.63365343579379,86.78929419741578L114.72402289061112,86.71023915967334L114.85957707283714,86.74644836828489L114.99513125506314,86.74555355559197L115.71808689360185,86.76248688648263L116.03437998546254,86.85779147261869L116.26030362250587,86.72949851227835L116.30548834991455,86.8018701455586L116.35067307732322,86.76680038834849L116.44104253214056,86.75526965378421L116.48622725954922,86.74590114130609L116.57659671436657,86.74277219994177L116.66696616918391,86.72002091170428L116.84770507881859,86.76466663859034L117.02844398845325,86.77607901759504L117.2543676254966,86.7595524501983L117.34473708031395,86.8175963613977L117.66103017217463,86.75860192106742L117.75139962699197,86.69326697242914L117.79658435440064,86.72690797705394L117.93213853662664,86.73018765427247L118.02250799144397,86.66638730828598L118.20324690107866,86.74781291856192L118.33880108330467,86.77797103170553L118.42917053812201,86.70994684377239L118.51953999293934,86.7462757478178L118.56472472034801,86.77285728993823L119.0165719944347,86.74397161071633L119.06175672184337,86.74161119889598L119.24249563147805,86.69805791615612L119.37804981370407,86.74664733961241L119.51360399593007,86.72973723320891L119.55878872333872,86.73856655795379L119.69434290556474,86.72488822826405L119.7395276329734,86.80463542271768L119.82989708779074,86.77629886862977L120.05582072483409,86.80458506577678L120.10100545224277,86.75329211103349L120.41729854410345,86.70708107604385L120.46248327151211,86.78490878896467L120.6432221811468,86.71780140999354L120.73359163596413,86.69943508358242L120.82396109078147,86.73239487380249L121.00470000041615,86.6345312394871L121.45654727450284,86.7085007844779L121.54691672932017,86.71818450237555L121.63728618413752,86.69045011011107L121.68247091154619,86.7250152930063L121.86320982118087,86.76737876740381L121.99876400340688,86.7348233958977L122.36024182267622,86.75653795642695L122.5409807323109,86.71917399951614L122.67653491453692,86.73202529181927L123.17356691603227,86.77179700277428L123.35430582566694,86.70836188417968L123.44467528048429,86.73102161434277L123.58022946271029,86.69916856026099L123.67059891752764,86.69375557990907L123.71578364493631,86.73134887863064L123.80615309975364,86.74782687558546L123.89652255457098,86.74257925804841L123.94170728197965,86.68995435663507L124.03207673679698,86.72109526754797L124.12244619161432,86.77345844685598L124.167630919023,86.75134214736127L124.34836982865767,86.724757143899L124.48392401088367,86.72117766981492L124.6194781931097,86.71796599121507L124.84540183015302,86.74688326913827L125.38761855905706,86.76067738629527L125.56835746869174,86.7732199492378L125.70391165091775,86.68457264001589L126.15575892500445,86.77470118023159L126.42686728945645,86.70046042235944L126.4720520168651,86.72407213318385L126.56242147168247,86.74618485968054L126.69797565390847,86.70883072851429L126.83352983613447,86.79147875073959L126.87871456354314,86.84982279377311L126.92389929095181,86.74294772346975L127.3757465650385,86.72299252949932L127.42093129244716,86.78963017088634L127.46611601985583,86.72312428380151L127.5564854746732,86.74937309048084L128.09870220357723,86.68725138362906L128.1438869309859,86.65633378509273L128.18907165839457,86.81538065599737L128.23425638580323,86.75371774442324L128.59573420507257,86.79571331168033L129.00239675175058,86.6868925206399L129.77053711769798,86.72753503820736L130.40312330141933,86.7854221841184L130.53867748364533,86.67154839227712L130.58386221105403,86.77235751683948L130.6290469384627,86.7329379695023L130.71941639328003,86.77513273139931L131.0808942125494,86.7512523757859L131.17126366736673,86.76426110331448L131.26163312218407,86.7390355139446L131.3520025770014,86.738131992069L131.8038498510881,86.72239293576823L132.16532767035744,86.76832136894532L132.2105123977661,86.75070291568333L132.70754439926148,86.76873472015436L133.06902221853082,86.77809798479161L133.34013058298285,86.7283725712757L133.38531531039152,86.74745707028987L133.47568476520885,86.73506546651392L133.5660542200262,86.76318049472427L133.79197785706953,86.75724127875696L134.65048767783426,86.70148777094788L134.7408571326516,86.77531004142632L134.92159604228627,86.71154553707626L134.96678076969494,86.81465790549059L135.41862804378164,86.79268876885205L135.50899749859894,86.76936267455727L135.64455168082497,86.83838987002979L135.68973640823364,86.75801449786084L135.7349211356423,86.6794595681857L136.186768409729,86.74233651749508L136.23195313713768,86.76563123640095L136.36750731936368,86.77044372977227L136.45787677418102,86.72824584150199L136.63861568381571,86.68819588332576L136.72898513863305,86.77085317301469L136.86453932085905,86.75709456252557L136.9549087756764,86.79028123812022L137.04527823049372,86.77796734705132L137.13564768531106,86.7367983705561L137.54231023198906,86.81372300822606L137.72304914162376,86.81743133355141L137.90378805125843,86.7487292808992L137.99415750607577,86.7675876761321L138.12971168830177,86.76709136437516L138.2652658705278,86.74485380625998L138.5363742349798,86.84638255495584L138.58155896238847,86.78579466916253L138.76229787202317,86.80953523122822L138.89785205424917,86.74927204163045L139.03340623647514,86.77580412005948L139.12377569129248,86.76969284190604L139.53043823797051,86.78476720891794L139.66599242019655,86.82721866839178L139.7111771476052,86.87281168637926L139.75636187501388,86.7419714017594L139.80154660242255,86.66386968455251L139.93710078464855,86.75816478709028L140.11783969428322,86.71281216487618L140.38894805873525,86.75065959308228L140.43413278614392,86.75498113419368L140.56968696836992,86.74323356331178L140.93116478763926,86.69603113302634L141.1570884246826,86.73333702871925L141.29264260690863,86.80631004222958L141.42819678913463,86.72279757779458L141.4733815165433,86.82030983008542L141.69930515358666,86.81506277082931L141.74448988099533,86.80332804040904L141.83485933581267,86.60031587542976L142.10596770026467,86.77398177941046L142.2415218824907,86.82240840814426L142.37707606471668,86.8377844701769L142.42226079212534,86.83556072553101L142.60299970176,86.76228367221995L143.46150952252475,86.78372802477355L143.64224843215942,86.73098443283206L143.73261788697678,86.81517018408245L143.95854152402012,86.78524465077903L144.18446516106343,86.77103260450927L144.77186661737616,86.74623119699866L144.95260552701083,86.76199023975714L145.08815970923683,86.86956349620586L145.7659306203669,86.78260532180033L146.26296262186224,86.77885568368532L146.3081473492709,86.80628335640058L146.4437015314969,86.73594565224617L146.71480989594892,86.77401427136125L147.03110298780962,86.78919593997009L147.07628771521829,86.82434530804245L147.12147244262695,86.84008514593653L147.16665717003562,86.8481663742199L147.2118418974443,86.74405725101275L147.25702662485298,86.85215305842264L147.6185044441223,86.77914241677685L148.6577531745217,86.87788076567125L148.70293790193037,86.80876100721865L148.74812262933904,86.75741557406688L149.06441572119974,86.79966806221323L149.56144772269508,86.76703151665824L149.6518171775124,86.71844689441802L150.19403390641645,86.77091514219919L150.23921863382512,86.77296023694385L150.37477281605115,86.93581787772656L150.46514227086848,86.86063100114299L150.51032699827715,86.75534290024375L150.60069645309449,86.73596608532863L151.4592062738592,86.71111052456672L151.68512991090253,86.73755461791936L151.82068409312856,86.79168196500228L151.95623827535456,86.72296305226561L152.3629008220326,86.79349492653148L152.40808554944127,86.80127133342081L152.67919391389327,86.88259974698487L152.76956336871058,86.75688107589357L152.81474809611927,86.74069695802628L153.08585646057128,86.80456016644678L153.22141064279728,86.78080363754616L153.26659537020595,86.80212505663644L153.4925190072493,86.7629962620136L153.58288846206665,86.8061041482184L153.67325791688398,86.80988170038047L153.80881209911,86.81198563793635L153.85399682651868,86.8414969267812L154.21547464578802,86.81786098656394L154.4413982828314,86.78214842467787L154.5317677376487,86.68663381325165L154.57695246505736,86.80718978133709L154.62213719246603,86.77315027577629L155.1191691939614,86.77691990034901L155.5710164680481,86.74521300421769L155.93249428731747,86.56145862865682L156.7006346532648,86.7804572800501L156.92655829030818,86.69851771633947L157.0169277451255,86.83334680662968L157.06211247253418,86.65426345604953L157.19766665476018,86.81829153282598L157.6495139288469,86.75525725994733L157.9206222932989,86.7910420633872L158.10136120293356,86.777158286311L158.3272848399769,148.12826593502612L158.41765429479426,-402.95802950234713L158.59839320442893,458.8785356661466L158.68876265924627,31.80403433537748L158.86950156888096,75.69006502183318L158.91468629628963,-70.55650651423696L159.68282666223698,-206.03798872735229L159.90875029928034,121.04371179311288L159.99911975409768,-214.55615893921697L160.45096702818438,-37.454394850328555L160.99318375708842,131.87931780509194L161.12873793931442,-124.99371827787809L161.8968783052618,-1.0086001745297892L162.07761721489646,123.38583343658303L162.1679866697138,-103.42354349207505L162.66501867120917,157.2727541167143L162.84575758084384,-10.927342736274653L163.70426740160855,-19.052290223480043L163.9301910386519,130.0208193093152L164.24648413051258,114.35259233490669L164.3820383127386,107.75012074420334L164.42722304014728,204.3777165890125L164.9694397690513,325.3977608432068L165.19536340609463,34.33729708120072L165.33091758832063,152.43057717106663L165.3761023157293,69.24257043397142L165.46647177054666,97.06025732166991L166.18942740908537,263.54239062370607L166.64127468317204,218.98190296503407L166.6864594105807,48.43104138635216L167.0027525024414,150.05452633834972L167.04793722985008,38.343174536085144L167.09312195725875,18.145706288564156L167.36423032171075,139.7094250682605L167.49978450393678,-5.095109475847636L168.71977214397083,202.45373575842893L168.81014159878816,120.14974054122577L169.03606523583153,153.66156788867744L169.17161941805753,124.82376505381411L169.2168041454662,18.727068797235376L169.30717360028353,-7.731881974459327L169.3523583276922,57.26451080894563L169.6686514195529,22.117086447515817L169.75902087437024,173.74909141396668L169.84939032918757,183.63896415166835L170.25605287586558,120.02142346314875L170.48197651290894,145.25081628944073L170.88863905958695,233.16531880162253L170.97900851440428,138.4024152446667L171.06937796922165,-14.271683179801613L171.25011687885632,171.286531153065L171.38567106108232,45.527712516070665L171.973072517395,196.36660481888816L172.0182572448037,179.13516441099392L172.06344197221236,105.05247686473629L172.33455033666436,171.68981544016302L172.69602815593373,169.5917224158142L172.96713652038574,45.133110614173745L173.01232124779443,159.71756372342708L173.0575059752031,171.21645036979982L173.23824488483777,10.624581175616015L173.4641685218811,161.04866984570245L173.78046161374178,170.12414199753695L174.14193943301115,193.1854717791537L174.32267834264582,-10.210192010655845L174.50341725228049,168.95217006130548L174.59378670709785,108.06884110054125L174.86489507154985,168.24703175504723L175.00044925377586,53.605828718160524L175.09081870859322,3.399114503252491L175.18118816341052,137.80198721853333L175.27155761822786,161.5317248867098L175.40711180045386,-2.6622837045111964L175.4974812552712,57.241343489750605L175.63303543749723,169.88357918650004L176.17525216640126,15.970658032749782L176.4011758034446,144.12262072501332L176.44636053085327,32.638197173321686L176.62709944048797,139.2132142485245L176.9433925323486,56.77632494277414L177.44042453384398,156.9615817187045L177.57597871607,-2.4966109320813246L177.62116344347868,9.551481240736308L177.75671762570468,167.38793296388553L177.98264126274802,11.7747149479178L178.25374962720005,41.516929334897696L178.29893435460872,1.7603160830438185L178.4796732642434,194.31691877178397L178.57004271906075,119.16091691076515L178.84115108351273,169.93265788737344L178.8863358109214,161.2186587997467L179.15744417537343,138.52038134746488L179.4737372672341,61.444343245682234L179.74484563168613,8.88468834928392L179.88039981391213,135.79083952812834L180.15150817836417,12.496074665210216L180.6485401798595,168.66272149128855L180.73890963467684,112.75500844691805L180.7840943620855,94.99153791408578L181.01001799912885,32.43421828906423L181.05520272653752,86.5680146334082L181.19075690876355,287.23328265735324L181.28112636358088,217.3943198985178L181.32631109098955,158.98427733872677L181.41668054580688,-30.380780594033666L181.64260418285025,135.07087328006577L182.09445145693692,123.34569080377051L182.36555982138893,186.39274518960747L182.45592927620626,138.57531261910344L182.50111400361493,65.32905140503897L182.68185291324963,160.60540371070306L182.7270376406583,191.2180075626041L182.90777655029297,38.74382909663666L182.9981460051103,91.98301998194404L183.26925436956233,104.09922600261402L183.314439096971,83.51073957021535L183.449993279197,88.16570571133758L183.6307321888317,82.72211101910355L184.1729489177357,179.4950296260904L184.39887255477905,69.67144095992751L184.4440572821877,108.8091645048521L184.53442673700505,96.44326487669197L184.94108928368308,19.77367137876061L184.98627401109175,61.256739411374014L185.25738237554378,55.83075959940395L185.30256710295245,52.65609368609498L185.9351532866738,123.8987587410806L186.11589219630847,74.93858314468979L186.20626165112583,165.84380469935107L186.29663110594316,143.8113196990746L186.43218528816917,59.46432530057132L186.56773947039517,163.1832145959038L186.9744020170732,181.44227067381763L187.2455103815252,136.89639300407043L187.33587983634254,177.2343080236291L187.8329118378379,21.63090146023842L187.87809656524658,30.94704718604862L188.14920492969858,52.40225361439663L188.46549802155928,139.55659007773494L189.54993147936733,116.44396812296826L189.595116206776,51.59959747303813L189.68548566159336,59.75748621553636L189.82103984381936,163.74193858908768L189.9114092986367,138.88075750127894L190.86028857421874,130.4446662000479L190.99584275644474,110.7814915717139L191.17658166607941,69.25911162832882L191.2217663934881,150.7305661486912L191.26695112089678,150.89757522238247L191.3573205757141,112.65124679776886L191.53805948534878,66.97444200660401L191.67361366757478,149.39397904744527L191.76398312239215,72.85577540589253L191.85435257720948,33.09707373669292L192.17064566907015,27.430027320964427L192.35138457870485,154.808971890488L192.48693876093083,78.24731687639724L192.7128623979742,159.72672489036356L193.07434021724353,179.62482949834782L193.25507912687823,34.996054300094556L193.34544858169556,72.23105813918421L193.4358180365129,160.68786135912734L193.48100276392157,175.32735610163337L193.7521111283736,132.875026602747L193.93285003800827,59.2148657244518L194.0232194928256,40.63504196233163L194.11358894764294,133.7853514665952L194.24914312986894,117.83080765493881L194.65580567654695,80.96320091078263L194.7461751313643,42.07773995892828L194.79135985877298,73.87692037648858L194.97209876840765,141.24887270538198L195.19802240545098,135.91600522194716L195.28839186026835,156.47496082566803L195.74023913435505,58.88497617628728L195.83060858917239,38.70758817766762L195.9209780439897,134.5057607664129L196.5083795003024,32.562017282427604L196.68911840993707,158.49484092324647L196.77948786475443,120.18266214502944L197.2313351388411,31.7165887817101L197.45725877588447,151.91522937390798L197.77355186774514,154.5505726733096L197.90910604997114,59.68444163040934L197.99947550478848,39.99334580900785L198.90317005296188,172.08477464186245L198.94835478037055,112.72299617111179L198.99353950777922,58.03069378646346L199.08390896259655,59.945243688759675L199.21946314482256,157.42307014363212L199.3098325996399,135.81795143714314L199.5809409640919,157.7395377247152L199.76167987372656,32.9285640038311L200.07797296558726,57.35295680206005L200.12315769299593,38.010667766867186L200.1683424204046,40.02834332466412L200.39426605744796,114.7335668223357L200.43945078485663,84.2446262185839L200.6201896944913,129.54378119698214L201.11722169598664,118.48447692464487L201.38833006043868,153.67453072551265L201.65943842489068,74.02593225912722L201.7949926071167,146.7073132044105L201.88536206193405,54.97643433360382L202.15647042638605,163.64472445881955L202.29202460861205,62.73840988392993L202.47276351824675,151.90220936910436L202.65350242788142,54.480909529488684L202.74387188269876,98.37490800154046L202.87942606492476,174.6975580317333L202.9697955197421,53.20169048453448L203.15053442937676,127.74384413883749L203.2409038841941,146.40076426584523L203.37645806642013,94.86818908976275L203.60238170346346,141.21544373585874L203.78312061309813,87.81961976312509L203.82830534050683,77.68214719477598L203.91867479532416,73.1986170718982L204.3253373420022,51.60854068709507L204.37052206941087,78.56986748661811L204.8675540709062,109.3802081952267L204.95792352572354,71.34573711551599L205.0031082531322,95.48762010589284L205.31940134499288,65.22503071353295L205.40977079981025,90.67207628752459L205.4549555272189,63.345410439930546L205.50014025462758,65.66177612713643L205.54532498203625,93.97385517857607L205.72606389167092,94.39767169882559L205.81643334648825,90.47441267727656L206.81049734947896,122.52512322331197L206.946051531705,94.46002230086336L207.35271407838303,99.42054051410186L207.48826826060903,75.15902104435008L207.57863771542637,99.10104124419446L207.8045613524697,72.8977063242166L207.84974607987837,70.00839968468478L207.94011553469574,99.12354934525385L208.30159335396505,99.28568842263687L208.5275169910084,70.05943817497494L208.84381008286908,99.4182019868944L210.10898245031183,98.60473931300885L210.42527554217253,100.28845925088864L210.8771228162592,72.76725080682155L210.9223075436679,73.64160808604964L211.14823118071124,99.98112961225488L211.55489372738924,97.02328393810572L211.6000784547979,69.4196642945887L212.0519257288846,113.19831745789375L212.09711045629328,110.56207018999177L212.14229518370195,84.62432871871596L212.23266463851928,106.8255235397437L212.32303409333662,73.45382202884214L212.41340354815398,97.67024669051858L212.45858827556265,94.12688847049202L212.50377300297131,65.78121430512094L212.59414245778865,92.45870214152654L213.40746755114466,78.17078861819569L213.63339118818803,73.38228346238269L213.85931482523137,97.20124782374211L213.9948690074574,67.57942739171845L214.1304231896834,69.41898006546687L214.35634682672674,70.45270913510751L214.8533788282221,93.08528451320397L215.2600413749001,73.00955188139768L215.39559555712611,70.66737306995915L215.4407802845348,96.36891614728576L215.84744283121282,98.88112142924781L216.11855119566485,71.40738919643985L216.79632210679486,98.97840344647841L216.84150683420353,96.49545387234625L216.93187628902086,99.14115886602077L217.11261519865556,99.08052330303506L217.29335410829023,101.62899987444938L217.42890829051623,75.73620671832988L217.70001665496827,98.37671415204217L217.7903861097856,74.26467998716737L218.19704865646364,100.82046257834148L218.37778756609828,99.48175847576567L218.6488959305503,71.81146311610142L218.87481956759365,77.48565016838317L219.14592793204568,100.08683139933173L219.32666684168035,98.7909282400991L219.55259047872372,73.51522221340521L219.8688835705844,99.30577403103521L220.04962248021906,122.12661603457357L220.45628502689706,74.66806789120811L220.5918392091231,118.45115157206433L221.13405593802713,101.67336579092759L221.3147948476618,99.17191344652221" fill="none"></path></g></g></g></g></g></g><g transform="translate(81, 175)" clip-path="url(#clip_1)"><clipPath id="clip_1"><rect width="248" height="24"></rect></clipPath><g><g><line x1="0" y1="0" x2="0" y2="5" style="visibility: inherit;" fill="rgb(0, 0, 0)" stroke="rgb(204, 204, 204)" stroke-width="1px"></line><line x1="22.592363704334606" y1="0" x2="22.592363704334606" y2="5" style="visibility: inherit;" fill="rgb(0, 0, 0)" stroke="rgb(204, 204, 204)" stroke-width="1px"></line><line x1="45.18472740866921" y1="0" x2="45.18472740866921" y2="5" style="visibility: inherit;" fill="rgb(0, 0, 0)" stroke="rgb(204, 204, 204)" stroke-width="1px"></line><line x1="67.7770911130038" y1="0" x2="67.7770911130038" y2="5" style="visibility: inherit;" fill="rgb(0, 0, 0)" stroke="rgb(204, 204, 204)" stroke-width="1px"></line><line x1="90.36945481733842" y1="0" x2="90.36945481733842" y2="5" style="visibility: inherit;" fill="rgb(0, 0, 0)" stroke="rgb(204, 204, 204)" stroke-width="1px"></line><line x1="112.96181852167302" y1="0" x2="112.96181852167302" y2="5" style="visibility: inherit;" fill="rgb(0, 0, 0)" stroke="rgb(204, 204, 204)" stroke-width="1px"></line><line x1="135.5541822260076" y1="0" x2="135.5541822260076" y2="5" style="visibility: inherit;" fill="rgb(0, 0, 0)" stroke="rgb(204, 204, 204)" stroke-width="1px"></line><line x1="158.14654593034223" y1="0" x2="158.14654593034223" y2="5" style="visibility: inherit;" fill="rgb(0, 0, 0)" stroke="rgb(204, 204, 204)" stroke-width="1px"></line><line x1="180.73890963467684" y1="0" x2="180.73890963467684" y2="5" style="visibility: inherit;" fill="rgb(0, 0, 0)" stroke="rgb(204, 204, 204)" stroke-width="1px"></line><line x1="203.33127333901146" y1="0" x2="203.33127333901146" y2="5" style="visibility: inherit;" fill="rgb(0, 0, 0)" stroke="rgb(204, 204, 204)" stroke-width="1px"></line><line x1="225.92363704334605" y1="0" x2="225.92363704334605" y2="5" style="visibility: inherit;" fill="rgb(0, 0, 0)" stroke="rgb(204, 204, 204)" stroke-width="1px"></line><line x1="248.51600074768066" y1="0" x2="248.51600074768066" y2="5" style="visibility: inherit;" fill="rgb(0, 0, 0)" stroke="rgb(204, 204, 204)" stroke-width="1px"></line></g><g transform="translate(0, 8)"><text style="text-anchor: middle; visibility: hidden; font-family: &quot;Helvetica Neue&quot;, sans-serif; font-size: 12px; font-weight: 200;" x="0" y="0" dx="0em" dy="0.95em" fill="rgb(50, 49, 63)" stroke="none" stroke-width="1px">500</text><text style="text-anchor: middle; visibility: inherit; font-family: &quot;Helvetica Neue&quot;, sans-serif; font-size: 12px; font-weight: 200;" x="22.592363704334606" y="0" dx="0em" dy="0.95em" fill="rgb(50, 49, 63)" stroke="none" stroke-width="1px">1k</text><text style="text-anchor: middle; visibility: hidden; font-family: &quot;Helvetica Neue&quot;, sans-serif; font-size: 12px; font-weight: 200;" x="45.18472740866921" y="0" dx="0em" dy="0.95em" fill="rgb(50, 49, 63)" stroke="none" stroke-width="1px">1.5k</text><text style="text-anchor: middle; visibility: inherit; font-family: &quot;Helvetica Neue&quot;, sans-serif; font-size: 12px; font-weight: 200;" x="67.7770911130038" y="0" dx="0em" dy="0.95em" fill="rgb(50, 49, 63)" stroke="none" stroke-width="1px">2k</text><text style="text-anchor: middle; visibility: hidden; font-family: &quot;Helvetica Neue&quot;, sans-serif; font-size: 12px; font-weight: 200;" x="90.36945481733842" y="0" dx="0em" dy="0.95em" fill="rgb(50, 49, 63)" stroke="none" stroke-width="1px">2.5k</text><text style="text-anchor: middle; visibility: inherit; font-family: &quot;Helvetica Neue&quot;, sans-serif; font-size: 12px; font-weight: 200;" x="112.96181852167302" y="0" dx="0em" dy="0.95em" fill="rgb(50, 49, 63)" stroke="none" stroke-width="1px">3k</text><text style="text-anchor: middle; visibility: hidden; font-family: &quot;Helvetica Neue&quot;, sans-serif; font-size: 12px; font-weight: 200;" x="135.5541822260076" y="0" dx="0em" dy="0.95em" fill="rgb(50, 49, 63)" stroke="none" stroke-width="1px">3.5k</text><text style="text-anchor: middle; visibility: inherit; font-family: &quot;Helvetica Neue&quot;, sans-serif; font-size: 12px; font-weight: 200;" x="158.14654593034223" y="0" dx="0em" dy="0.95em" fill="rgb(50, 49, 63)" stroke="none" stroke-width="1px">4k</text><text style="text-anchor: middle; visibility: hidden; font-family: &quot;Helvetica Neue&quot;, sans-serif; font-size: 12px; font-weight: 200;" x="180.73890963467684" y="0" dx="0em" dy="0.95em" fill="rgb(50, 49, 63)" stroke="none" stroke-width="1px">4.5k</text><text style="text-anchor: middle; visibility: inherit; font-family: &quot;Helvetica Neue&quot;, sans-serif; font-size: 12px; font-weight: 200;" x="203.33127333901146" y="0" dx="0em" dy="0.95em" fill="rgb(50, 49, 63)" stroke="none" stroke-width="1px">5k</text><text style="text-anchor: middle; visibility: hidden; font-family: &quot;Helvetica Neue&quot;, sans-serif; font-size: 12px; font-weight: 200;" x="225.92363704334605" y="0" dx="0em" dy="0.95em" fill="rgb(50, 49, 63)" stroke="none" stroke-width="1px">5.5k</text><text style="text-anchor: middle; visibility: hidden; font-family: &quot;Helvetica Neue&quot;, sans-serif; font-size: 12px; font-weight: 200;" x="248.51600074768066" y="0" dx="0em" dy="0.95em" fill="rgb(50, 49, 63)" stroke="none" stroke-width="1px">6k</text></g><line x1="0" y1="0" x2="248.51600074768066" y2="0" fill="rgb(0, 0, 0)" stroke="rgb(204, 204, 204)" stroke-width="1px"></line></g></g></g></g></svg>