<svg viewBox="0 0 330 200" xmlns="http://www.w3.org/2000/svg"><g><g><g><g><g><line x1="61.05999946594238" y1="175.61999893188477" x2="56.05999946594238" y2="175.61999893188477" style="visibility: inherit;" fill="rgb(0, 0, 0)" stroke="rgb(204, 204, 204)" stroke-width="1px"></line><line x1="61.05999946594238" y1="153.66749906539917" x2="56.05999946594238" y2="153.66749906539917" style="visibility: inherit;" fill="rgb(0, 0, 0)" stroke="rgb(204, 204, 204)" stroke-width="1px"></line><line x1="61.05999946594238" y1="131.71499919891357" x2="56.05999946594238" y2="131.71499919891357" style="visibility: inherit;" fill="rgb(0, 0, 0)" stroke="rgb(204, 204, 204)" stroke-width="1px"></line><line x1="61.05999946594238" y1="109.76249933242798" x2="56.05999946594238" y2="109.76249933242798" style="visibility: inherit;" fill="rgb(0, 0, 0)" stroke="rgb(204, 204, 204)" stroke-width="1px"></line><line x1="61.05999946594238" y1="87.80999946594238" x2="56.05999946594238" y2="87.80999946594238" style="visibility: inherit;" fill="rgb(0, 0, 0)" stroke="rgb(204, 204, 204)" stroke-width="1px"></line><line x1="61.05999946594238" y1="65.85749959945679" x2="56.05999946594238" y2="65.85749959945679" style="visibility: inherit;" fill="rgb(0, 0, 0)" stroke="rgb(204, 204, 204)" stroke-width="1px"></line><line x1="61.05999946594238" y1="43.90499973297119" x2="56.05999946594238" y2="43.90499973297119" style="visibility: inherit;" fill="rgb(0, 0, 0)" stroke="rgb(204, 204, 204)" stroke-width="1px"></line><line x1="61.05999946594238" y1="21.952499866485596" x2="56.05999946594238" y2="21.952499866485596" style="visibility: inherit;" fill="rgb(0, 0, 0)" stroke="rgb(204, 204, 204)" stroke-width="1px"></line><line x1="61.05999946594238" y1="0" x2="56.05999946594238" y2="0" style="visibility: inherit;" fill="rgb(0, 0, 0)" stroke="rgb(204, 204, 204)" stroke-width="1px"></line></g><g transform="translate(51.05999946594238, 0)"><text style="text-anchor: end; visibility: hidden; font-family: &quot;Helvetica Neue&quot;, sans-serif; font-size: 12px; font-weight: 200;" x="0" y="175.61999893188477" dx="0em" dy="0.3em" fill="rgb(50, 49, 63)" stroke="none" stroke-width="1px">-1e+3</text><text style="text-anchor: end; visibility: inherit; font-family: &quot;Helvetica Neue&quot;, sans-serif; font-size: 12px; font-weight: 200;" x="0" y="153.66749906539917" dx="0em" dy="0.3em" fill="rgb(50, 49, 63)" stroke="none" stroke-width="1px">0</text><text style="text-anchor: end; visibility: hidden; font-family: &quot;Helvetica Neue&quot;, sans-serif; font-size: 12px; font-weight: 200;" x="0" y="131.71499919891357" dx="0em" dy="0.3em" fill="rgb(50, 49, 63)" stroke="none" stroke-width="1px">1e+3</text><text style="text-anchor: end; visibility: inherit; font-family: &quot;Helvetica Neue&quot;, sans-serif; font-size: 12px; font-weight: 200;" x="0" y="109.76249933242798" dx="0em" dy="0.3em" fill="rgb(50, 49, 63)" stroke="none" stroke-width="1px">2e+3</text><text style="text-anchor: end; visibility: hidden; font-family: &quot;Helvetica Neue&quot;, sans-serif; font-size: 12px; font-weight: 200;" x="0" y="87.80999946594238" dx="0em" dy="0.3em" fill="rgb(50, 49, 63)" stroke="none" stroke-width="1px">3e+3</text><text style="text-anchor: end; visibility: inherit; font-family: &quot;Helvetica Neue&quot;, sans-serif; font-size: 12px; font-weight: 200;" x="0" y="65.85749959945679" dx="0em" dy="0.3em" fill="rgb(50, 49, 63)" stroke="none" stroke-width="1px">4e+3</text><text style="text-anchor: end; visibility: hidden; font-family: &quot;Helvetica Neue&quot;, sans-serif; font-size: 12px; font-weight: 200;" x="0" y="43.90499973297119" dx="0em" dy="0.3em" fill="rgb(50, 49, 63)" stroke="none" stroke-width="1px">5e+3</text><text style="text-anchor: end; visibility: inherit; font-family: &quot;Helvetica Neue&quot;, sans-serif; font-size: 12px; font-weight: 200;" x="0" y="21.952499866485596" dx="0em" dy="0.3em" fill="rgb(50, 49, 63)" stroke="none" stroke-width="1px">6e+3</text><text style="text-anchor: end; visibility: hidden; font-family: &quot;Helvetica Neue&quot;, sans-serif; font-size: 12px; font-weight: 200;" x="0" y="0" dx="0em" dy="0.3em" fill="rgb(50, 49, 63)" stroke="none" stroke-width="1px">7e+3</text></g><line x1="61.05999946594238" y1="0" x2="61.05999946594238" y2="175.61999893188477" fill="rgb(0, 0, 0)" stroke="rgb(204, 204, 204)" stroke-width="1px"></line></g></g><g transform="translate(61, 0)" clip-path="url(#clip_0)"><clipPath id="clip_0"><rect width="268" height="175"></rect></clipPath><g><g><g><line x1="0" y1="0" x2="0" y2="175.61999893188477" fill="rgb(0, 0, 0)" stroke="rgb(60, 60, 60)" stroke-width="1px" opacity="0.25"></line><line x1="24.4490909576416" y1="0" x2="24.4490909576416" y2="175.61999893188477" fill="rgb(0, 0, 0)" stroke="rgb(60, 60, 60)" stroke-width="1px" opacity="0.25"></line><line x1="48.8981819152832" y1="0" x2="48.8981819152832" y2="175.61999893188477" fill="rgb(0, 0, 0)" stroke="rgb(60, 60, 60)" stroke-width="1px" opacity="0.25"></line><line x1="73.3472728729248" y1="0" x2="73.3472728729248" y2="175.61999893188477" fill="rgb(0, 0, 0)" stroke="rgb(60, 60, 60)" stroke-width="1px" opacity="0.25"></line><line x1="97.7963638305664" y1="0" x2="97.7963638305664" y2="175.61999893188477" fill="rgb(0, 0, 0)" stroke="rgb(60, 60, 60)" stroke-width="1px" opacity="0.25"></line><line x1="122.24545478820801" y1="0" x2="122.24545478820801" y2="175.61999893188477" fill="rgb(0, 0, 0)" stroke="rgb(60, 60, 60)" stroke-width="1px" opacity="0.25"></line><line x1="146.6945457458496" y1="0" x2="146.6945457458496" y2="175.61999893188477" fill="rgb(0, 0, 0)" stroke="rgb(60, 60, 60)" stroke-width="1px" opacity="0.25"></line><line x1="171.1436367034912" y1="0" x2="171.1436367034912" y2="175.61999893188477" fill="rgb(0, 0, 0)" stroke="rgb(60, 60, 60)" stroke-width="1px" opacity="0.25"></line><line x1="195.5927276611328" y1="0" x2="195.5927276611328" y2="175.61999893188477" fill="rgb(0, 0, 0)" stroke="rgb(60, 60, 60)" stroke-width="1px" opacity="0.25"></line><line x1="220.0418186187744" y1="0" x2="220.0418186187744" y2="175.61999893188477" fill="rgb(0, 0, 0)" stroke="rgb(60, 60, 60)" stroke-width="1px" opacity="0.25"></line><line x1="244.49090957641602" y1="0" x2="244.49090957641602" y2="175.61999893188477" fill="rgb(0, 0, 0)" stroke="rgb(60, 60, 60)" stroke-width="1px" opacity="0.25"></line><line x1="268.9400005340576" y1="0" x2="268.9400005340576" y2="175.61999893188477" fill="rgb(0, 0, 0)" stroke="rgb(60, 60, 60)" stroke-width="1px" opacity="0.25"></line></g><g><line x1="0" y1="175.61999893188477" x2="268.9400005340576" y2="175.61999893188477" fill="rgb(0, 0, 0)" stroke="rgb(60, 60, 60)" stroke-width="1px" opacity="0.25"></line><line x1="0" y1="153.66749906539917" x2="268.9400005340576" y2="153.66749906539917" fill="rgb(0, 0, 0)" stroke="rgb(60, 60, 60)" stroke-width="1px" opacity="0.25"></line><line x1="0" y1="131.71499919891357" x2="268.9400005340576" y2="131.71499919891357" fill="rgb(0, 0, 0)" stroke="rgb(60, 60, 60)" stroke-width="1px" opacity="0.25"></line><line x1="0" y1="109.76249933242798" x2="268.9400005340576" y2="109.76249933242798" fill="rgb(0, 0, 0)" stroke="rgb(60, 60, 60)" stroke-width="1px" opacity="0.25"></line><line x1="0" y1="87.80999946594238" x2="268.9400005340576" y2="87.80999946594238" fill="rgb(0, 0, 0)" stroke="rgb(60, 60, 60)" stroke-width="1px" opacity="0.25"></line><line x1="0" y1="65.85749959945679" x2="268.9400005340576" y2="65.85749959945679" fill="rgb(0, 0, 0)" stroke="rgb(60, 60, 60)" stroke-width="1px" opacity="0.25"></line><line x1="0" y1="43.90499973297119" x2="268.9400005340576" y2="43.90499973297119" fill="rgb(0, 0, 0)" stroke="rgb(60, 60, 60)" stroke-width="1px" opacity="0.25"></line><line x1="0" y1="21.952499866485596" x2="268.9400005340576" y2="21.952499866485596" fill="rgb(0, 0, 0)" stroke="rgb(60, 60, 60)" stroke-width="1px" opacity="0.25"></line><line x1="0" y1="0" x2="268.9400005340576" y2="0" fill="rgb(0, 0, 0)" stroke="rgb(60, 60, 60)" stroke-width="1px" opacity="0.25"></line></g></g></g><g><g><line x1="0" y1="153.66749906539917" x2="268.9400005340576" y2="153.66749906539917" fill="rgb(0, 0, 0)" stroke="rgb(153, 153, 153)" stroke-width="1.5px"></line></g></g><g><g><line x1="-24.4490909576416" y1="0" x2="-24.4490909576416" y2="175.61999893188477" fill="rgb(0, 0, 0)" stroke="rgb(153, 153, 153)" stroke-width="1.5px"></line></g></g><g><g><g><g><g><path style="fill: none;" stroke="rgb(255, 112, 67)" stroke-width="2px" d="M28.11645460128784,-6.598982670303144L28.36094551086426,9.414661530672788L28.752130966186524,25.27903434194843L29.094418239593505,28.079760134951158L29.485603694915774,52.757193394035994L29.632298240661623,-2.7995418831871177L29.681196422576903,12.719308160962186L30.023483695983884,-27.44783237946504L30.2679746055603,35.33482640778766L30.65916006088257,63.32341929806803L30.854752788543703,58.73741965275204L31.29483642578125,62.38909908690533L31.832716426849366,79.97350470283543L32.07720733642578,66.032525529388L32.22390188217163,68.47386881906591L32.66398551940918,71.14183024084109L32.712883701324465,47.32109548709863L33.2018655204773,74.90583077837513L33.44635643005371,71.37189428755651L33.54415279388428,51.32423322600171L33.593050975799564,73.141152508548L33.78864370346069,90.96527480760916L34.17982915878296,106.84978323660141L34.57101461410522,96.68166435353075L34.61991279602051,105.21034200294598L34.66881097793579,81.87457047771561L34.86440370559692,18.75832082668572L35.40228370666504,18.859209821862294L35.695672798156735,55.650162209195L35.940163707733156,23.129627512470165L36.086858253479,20.20482997663126L36.6736364364624,21.696035882400878L36.96702552795411,32.36981348619952L37.21151643753051,35.24341490373553L37.358210983276365,-26.468734614369055L37.5538037109375,28.441242345866016L37.74939643859863,55.74708678122103L37.8471928024292,81.96963099339948L38.77625825881958,62.39295594438016L39.020749168396,80.22621872704346L39.06964735031128,71.62616235946807L39.3141382598877,73.16739495422422L39.558629169464105,95.67631902214028L39.65642553329467,91.610573143728L40.047610988616945,88.95931614995148L40.09650917053222,89.0262651064454L40.38989826202393,108.83336146803043L40.43879644393921,98.4524677993032L40.48769462585449,95.34241926342656L40.63438917160034,93.65139915817018L41.074472808837896,99.90416431961525L41.465658264160155,103.39992672712067L42.248029174804685,106.58618207332708L42.44362190246582,104.34541519851832L42.73701099395752,120.52474068104326L42.93260372161865,131.23894652113768L43.03040008544922,117.2304435150312L43.61717826843262,111.26677912254398L43.6660764503479,123.12332311681085L44.44844736099243,130.96836744556984L45.08412372589111,135.9594473858242L45.133021907806395,124.64895997616475L45.23081827163696,130.79684731358128L45.52420736312866,122.0433256560234L45.96429100036621,120.25960152235209L46.06208736419678,127.38906736483756L46.110985546112055,122.7983978410139L46.25768009185791,128.4037455015962L46.55106918334961,126.36955737692715L46.99115282058716,128.5735631999869L47.137847366333006,127.62842620328033L47.18674554824829,129.40427439682952L47.626829185485846,131.70944301702835L47.67572736740112,129.65856437116582L48.40920009613037,132.36363912687517L48.50699645996094,131.95693526217693L48.604792823791506,135.64457940791004L49.28936737060547,135.6205550622122L49.53385828018188,130.24483083517913L49.63165464401245,136.3339111298209L49.7783491897583,129.4921965857082L50.16953464508057,125.7645461241573L50.462923736572264,135.00022803523473L50.56072010040283,131.0021882799694L50.70741464614868,132.0782168411011L51.00080373764038,133.0349527808195L51.245294647216795,122.1510853407288L51.73427646636963,115.10739366202324L51.83207283020019,111.2350212244252L52.02766555786133,104.57826432777236L52.32105464935303,106.14184997678004L52.51664737701416,116.45202842380829L52.56554555892944,121.40890376134223L52.81003646850586,127.69813406564845L52.907832832336425,135.33039836987464L52.956731014251716,134.4971175538418L53.05452737808228,133.94597337080776L53.152323741912845,136.51429240365843L53.20122192382812,139.41232481978452L53.44571283340454,140.51948171986567L53.49461101531982,140.15169161991457L53.934694652557376,137.89321780537L54.22808374404907,125.66486310328193L54.32588010787964,131.73118114173363L54.570371017456054,133.76112965654144L54.81486192703247,93.23568601820962L54.912658290863035,45.95430187576861L55.49943647384644,78.05457768781605L55.84172374725342,97.53094742934478L55.8906219291687,110.92899673418523L55.98841829299927,120.95238161239254L56.03731647491455,126.88544125807111L56.08621465682983,129.75571879710867L56.135112838745115,130.17996091631574L56.23290920257568,128.9650853817135L56.379603748321536,135.49691937860882L56.575196475982665,124.7716068024584L56.819687385559085,121.07288411707817L56.96638193130493,105.445569523921L57.16197465896606,87.4767557966039L57.30866920471191,102.85705914426374L57.455363750457764,85.72853386345325L57.6509564781189,88.6113592516474L57.69985466003418,106.78100508452779L57.89544738769531,109.34135285910948L58.139938297271726,104.88712091307538L58.18883647918701,107.82937092126689L58.53112375259399,99.90988682395184L58.677818298339844,85.7301207598181L58.87341102600098,101.67213011008572L59.020105571746825,101.73560990620932L59.41129102706909,75.13026597815453L59.60688375473023,94.84382292557697L59.75357830047607,49.487733694508606L59.80247648239136,36.42445147752031L59.85137466430664,54.463458713088926L60.19366193771362,81.22560849801849L60.487051029205325,104.13158739739109L60.584847393035886,107.0499286328095L60.63374557495118,119.36054351088714L60.82933830261231,99.96033489752382L61.02493103027344,93.60091144177355L61.17162557601929,110.8278748867662L61.22052375793457,121.80018934350855L61.26942193984985,114.07594404622293L61.465014667510985,116.02297070770544L61.905098304748535,116.72379139933216L62.100691032409664,117.06336827183156L62.149589214324955,127.90801095182944L62.19848739624023,132.14641891584847L62.2962837600708,137.40803962535745L62.345181941986084,139.1368834898634L62.63857103347778,141.5252774756732L62.83416376113892,122.3006446352239L62.8830619430542,114.37479159504011L62.98085830688477,112.28432826131288L63.07865467071534,107.5928290192863L63.22534921646118,116.87076951685509L63.27424739837647,110.15240788169126L63.323145580291744,104.4430322462499L63.372043762207035,109.37399467255902L63.51873830795288,122.68986312782127L63.71433103561401,126.03687987304352L63.95882194519043,130.96910287602594L64.00772012710571,134.54031437612034L64.056618309021,137.70681829576824L64.3500074005127,130.84926229170094L64.6433964920044,132.63147886042796L64.83898921966552,135.773407770504L64.98568376541138,136.85103469128524L65.18127649307252,132.10715199165085L65.37686922073364,137.86921918041512L65.4746655845642,136.4910306907462L65.71915649414062,134.5303369006544L66.89271286010742,104.91732598833153L66.99050922393799,67.50006405312092L67.03940740585327,54.581370856484256L67.2350001335144,68.62002408307656L67.33279649734497,89.78890604307557L67.52838922500611,101.49429060355025L67.62618558883666,114.23783794042025L68.01737104415893,125.24193241403813L68.31076013565064,132.36109552786658L68.50635286331178,135.57473962250714L68.84864013671876,138.25606832861715L68.89753831863403,140.07418258491512L68.94643650054931,141.0202085874508L68.99533468246459,141.20338451873346L69.23982559204102,141.74601399250432L69.33762195587158,142.79418398905293L69.48431650161743,142.3621767640644L69.5332146835327,142.65534497164074L69.63101104736329,142.84534137339574L70.02219650268555,142.9505354366397L70.07109468460082,142.954477131843L70.21778923034668,143.31654318480216L70.56007650375366,142.85405978122196L70.70677104949952,142.9277347039791L71.14685468673706,143.22407210425055L71.24465105056763,142.72183181505943L71.3424474143982,142.86620538913908L71.48914196014405,142.9316595202879L71.53804014205933,143.01745296921428L71.73363286972045,143.38236341230467L71.97812377929687,143.02012769521292L72.02702196121217,142.5608076534535L72.22261468887329,142.70429989141297L72.27151287078857,142.42570075496138L72.32041105270386,142.84287758801798L72.36930923461914,142.49479959523882L72.56490196228027,142.63824299087966L72.61380014419557,142.524613900664L72.7604946899414,142.51264256386855L72.80939287185669,142.86027829582713L73.20057832717896,143.4229030177916L73.3961710548401,147.17524236471337L73.49396741867065,149.42648713077298L73.59176378250122,150.77765306958025L73.6406619644165,151.60217879534767L74.03184741973877,152.08215045543847L74.08074560165406,152.37392496067858L74.2274401473999,152.54739896510188L74.61862560272216,152.6532113365945L74.71642196655273,152.7143177024405L74.91201469421387,152.75293314929755L74.96091287612914,152.77423068006505L75.20540378570557,152.78720006361382L75.54769105911254,152.7959843886451L76.08557106018065,152.8090403230483L76.18336742401124,152.8076595014144L76.47675651550293,152.81002902031648L76.52565469741822,152.8079898364456L76.62345106124877,152.80697407362703L76.72124742507935,152.812839223326L76.91684015274048,152.81071543270178L77.11243288040161,152.80992646078403L77.21022924423217,152.8103039982787L77.4547201538086,152.81624625688193L77.50361833572389,152.81196135575158L77.55251651763916,152.8100377083281L77.94370197296142,152.8121800795082L78.23709106445312,152.8103102658196L78.43268379211426,152.80996439928063L78.48158197402954,152.81091479869227L78.53048015594482,152.8224601828762L78.97056379318238,152.82592966687898L79.21505470275879,152.82056581000842L79.5084437942505,152.8224521153428L79.89962924957275,152.81843724053184L79.99742561340332,152.81626778467228L80.97538925170898,152.81439050117467L81.02428743362427,152.81391745376501L81.2198801612854,152.81293464641493L81.26877834320068,152.81208750516595L81.31767652511597,152.81240240566467L82.19784379959107,152.8115781665458L82.44233470916748,152.80890388213237L82.78462198257446,-23.63892574666579L82.83352016448974,-52.99215093852811L83.12690925598145,29.33820923485186L83.22470561981201,78.72434600396568L83.46919652938843,108.35665258082629L83.566992893219,126.13846146487423L83.66478925704956,136.8082058794512L83.8603819847107,143.20939753066565L84.74054925918578,147.05886538398147L84.83834562301635,149.35880199440672L84.93614198684693,150.74712949909744L85.32732744216919,151.57714923676656L85.47402198791504,152.06942909728622L85.76741107940674,152.36451151989016L85.8652074432373,152.54147957609126L85.96300380706788,152.65721820186045L86.01190198898315,152.71706379100794L86.158596534729,152.76279640894398L86.40308744430541,152.78439590326786L86.79427289962769,152.7938484454913L87.13656017303467,152.8000851967817L87.42994926452637,152.80280247822546L87.62554199218751,152.8045238580508L87.67444017410278,152.81358383913738L87.72333835601806,152.81158627239174L87.77223653793335,152.81222158474637L88.06562562942504,152.81540026212855L88.55460744857788,152.815260944614L88.65240381240844,152.8152935881973L88.7990983581543,152.81323744114457L88.84799654006957,152.81044517767748L88.99469108581543,152.815716230211L89.28808017730714,152.82804162535103L89.38587654113769,152.82267938366135L89.53257108688355,152.81753399308505L89.6792656326294,152.81357507004296L89.82596017837525,152.82050229571664L89.87485836029053,152.81657074812864L90.75502563476563,152.8143809787011L91.29290563583373,152.81345259886905L91.48849836349488,152.81295425746234L92.17307291030883,152.81280752932793L92.22197109222411,152.81244749797258L92.36866563796997,152.8152254281921L92.41756381988525,152.81507444590974L92.51536018371581,152.83162211362222L92.5642583656311,152.83625767497523L93.54222200393676,152.84623370110106L93.59112018585205,152.83478919400736L93.64001836776734,152.82595813359623L93.88450927734375,152.81998600955305L94.0312038230896,152.8217288023021L94.22679655075073,152.82514153331508L94.3245929145813,152.8201562724257L94.52018564224244,152.82503339349316L94.71577836990357,152.82514740405048L94.9113710975647,152.8217584658396L95.69374200820923,152.82715664849925L96.13382564544678,152.8414871042083L96.18272382736207,85.8079448618666L96.72060382843017,112.61880698588695L97.11178928375244,128.70372786711278L97.16068746566772,138.3535279699977L97.30738201141358,144.14396109832614L97.40517837524413,147.63401015408687L97.45407655715942,149.71532093162622L97.84526201248168,150.96013912605255L97.89416019439697,151.70355769157135L98.23644746780396,152.16431455382326L98.33424383163452,152.44223891519928L98.72542928695678,152.6149831049331L98.9699201965332,152.70971911997964L99.01881837844849,152.75784906755388L99.16551292419435,152.80960411619762L99.50780019760131,152.81722492188214L100.09457838058471,152.8366203672312L100.33906929016113,152.8301955934738L100.38796747207641,152.83407508638822L100.485763835907,152.82779063984384L100.53466201782227,152.86049222017712L100.82805110931396,152.84935886701615L101.17033838272094,152.84590557380795L101.21923656463622,152.85727387657937L101.65932020187378,152.84702157748518L101.85491292953492,152.83467441847193L101.95270929336547,152.8340400248668L102.14830202102661,152.8353919466117L102.58838565826416,152.84106242163534L102.93067293167115,152.8507888796572L102.97957111358643,152.84751437993384L103.22406202316284,152.84222280581056L103.6152474784851,152.81858841685423L103.71304384231567,152.81964001001134L104.05533111572267,152.82317896200453L104.10422929763794,152.8503585847952L104.29982202529908,152.85815189301007L104.54431293487549,152.84199460853824L104.69100748062134,152.84427643594822L104.78880384445189,152.84424395692514L104.93549839019775,152.85102627419553L105.0821929359436,152.84324641955084L105.27778566360473,152.84954303279747L105.668971118927,152.87082719487574L106.06015657424926,152.84734076165626L106.15795293807983,152.843531197282L106.2557493019104,152.84632743423919L106.40244384765624,152.85819806886096L106.45134202957152,152.8595542672617L106.74473112106324,152.86151136800146L106.79362930297852,152.84699432749625L107.18481475830077,152.86261672219723L107.33150930404663,152.84121877426003L107.38040748596191,152.83264579667434L107.4293056678772,152.8365399644556L107.47820384979248,152.84853685804427L107.57600021362305,152.85117262185355L107.72269475936889,152.85692122307336L108.06498203277587,152.8489715375306L108.11388021469116,152.82514747485214L108.45616748809815,152.82480300410973L108.50506567001342,152.84036500035177L108.55396385192871,152.84171098703263L108.99404748916626,152.82568972484586L109.1896402168274,152.81815588293784L109.28743658065797,152.82561927918198L109.33633476257324,152.82900223769622L109.4341311264038,152.8330776993272L109.67862203598023,152.8318058636384L109.7275202178955,152.84458400044693L109.82531658172607,152.85213766315712L109.87421476364136,152.85130996178324L109.92311294555664,152.85895873805367L110.16760385513305,152.86224668443833L110.85217840194703,152.86086825926202L111.29226203918456,152.84694738344652L111.58565113067627,152.86265129537958L111.92793840408326,152.8564607577314L111.97683658599854,152.87057774976185L112.41692022323608,152.86421667582135L112.75920749664307,152.85465029604129L113.1992911338806,152.86268333715762L113.34598567962647,152.8540551788541L113.68827295303345,152.86549098285235L113.78606931686402,152.86512381012486L113.98166204452515,152.85521514369327L114.47064386367798,152.84737191145527L114.51954204559325,152.86481700784734L114.66623659133911,152.8731192308416L114.91072750091553,152.88337645352212L115.10632022857666,152.87285317124216L115.74199659347533,152.86284302474212L115.83979295730592,152.85983808769896L115.8886911392212,152.84575018685376L116.18208023071288,152.85821053875637L116.23097841262818,152.8750668411228L116.27987659454345,152.87728537997208L116.37767295837402,152.88677081054027L116.47546932220459,152.8835346541749L117.06224750518798,152.87669464803804L117.9424147796631,152.88212659645401L118.23580387115479,152.86348170209158L118.52919296264649,152.8837255358518L118.57809114456177,152.8755019957167L118.87148023605347,152.89341111990979L119.06707296371461,152.86482069990473L119.16486932754516,152.84930216639762L119.26266569137573,152.8649006486504L119.55605478286742,152.87947506456948L119.70274932861328,152.85799764431266L119.80054569244385,152.8369978850523L119.94724023818969,152.86437666169923L120.09393478393554,152.87000209588587L120.2406293296814,152.88045457223615L120.68071296691895,152.84763010150843L120.77850933074951,152.82290305233454L121.36528751373291,152.84179346775142L121.41418569564819,152.85200081575564L121.46308387756348,152.8527264357078L122.14765842437744,152.86039555432777L122.34325115203858,152.87381212524625L122.5388438796997,152.86322498629522L122.73443660736083,152.85882918731824L122.78333478927613,152.87755700790433L122.93002933502197,152.8669829255893L123.02782569885254,152.8680265093699L123.12562206268309,152.88560364337232L123.51680751800538,152.8851087904295L123.61460388183593,152.90152473324508L123.76129842758179,152.88663502809263L123.90799297332764,152.87943583971426L124.05468751907348,152.89284004940353L124.15248388290405,152.87716606389438L124.29917842864991,152.87862443517236L124.44587297439574,152.87923101413125L125.22824388504029,152.8846749607738L125.57053115844725,152.91653270460012L125.81502206802368,152.89715946279384L125.86392024993897,152.90724700769414L125.91281843185425,152.90277860747128L126.01061479568482,152.89663834696827L126.0595129776001,152.89014363692306L126.15730934143068,152.8853081284866L126.25510570526123,152.8755814369535L126.45069843292237,152.88313914009944L126.64629116058349,152.89109747568844L126.89078207015991,152.8909145068228L126.98857843399048,152.90821789886323L127.33086570739746,152.9009016019884L127.42866207122802,152.87691133927206L127.47756025314331,152.87260948302966L127.62425479888915,152.87101227244978L127.72205116271972,152.8509138423059L127.91764389038086,152.86328246730238L128.06433843612672,152.87975107624334L128.16213479995727,152.86922498522796L128.25993116378783,152.87380800183237L128.30882934570312,152.88453227443114L128.79781116485594,152.88230113422384L128.84670934677123,152.88025432655334L129.04230207443237,152.86596025712907L129.18899662017822,152.87196064251143L129.33569116592406,152.8704878418198L129.38458934783935,152.87225295882826L129.5312838935852,152.86920853012643L129.5801820755005,152.8913060312414L129.67797843933104,152.89606356568402L129.92246934890747,152.90740394549368L129.97136753082276,152.89882028695652L130.31365480422974,152.87980678133732L130.36255298614503,152.89174699184204L130.55814571380617,152.87877890445353L130.65594207763672,152.8654881540971L130.75373844146728,152.86740164094925L130.9493311691284,152.83919064276594L131.43831298828124,152.8444549073532L131.53610935211182,152.85051858147483L131.63390571594238,152.84583646826846L131.68280389785767,152.85339675521323L131.8783966255188,152.87064196969934L132.02509117126465,152.87122248693916L132.41627662658692,152.87808516544183L132.61186935424806,152.8709935854702L132.7585638999939,152.87059402517815L133.29644390106202,152.88228580228943L133.49203662872313,152.8702703329778L133.5898329925537,152.86985897043976L133.73652753829955,152.8600562366924L133.83432390213014,152.85255070233842L133.8832220840454,152.8593253713425L133.98101844787598,152.86833357183139L134.07881481170654,152.8721642068636L134.12771299362183,152.85867511745894L134.22550935745238,152.85992393709L134.32330572128296,152.87638218266105L134.37220390319825,152.87962224015524L134.56779663085936,152.8735907736131L134.7144911766052,152.8688980514626L134.86118572235108,152.86511891459233L135.10567663192748,152.87152661584713L135.6924548149109,152.8795094717471L135.88804754257202,152.88806195416984L136.03474208831787,152.86659925085692L136.5237239074707,152.88076019093387L136.8171129989624,152.86698452761843L136.86601118087768,152.86580264287647L136.96380754470826,152.87172732998027L137.1105020904541,152.8640759028927L137.25719663619995,152.88427945330776L137.30609481811524,152.91390479646685L137.3549930000305,152.89961748127126L137.84397481918333,152.88505853396282L137.89287300109862,152.89631445799384L137.9417711830139,152.88311624628702L138.0395675468445,152.8830719612667L138.6263457298279,152.864408878199L138.67524391174317,152.84393574879746L138.72414209365846,152.87936593242793L138.77304027557372,152.88212516913399L139.16422573089602,152.89637938133475L139.60430936813353,152.87228567134306L140.43557846069336,152.87002220061828L141.12015300750733,152.88603026195676L141.26684755325317,152.86147296120743L141.31574573516846,152.87698131812655L141.36464391708375,152.87446046807688L141.4624402809143,152.88560638661616L141.85362573623658,152.8851298310557L141.95142210006713,152.88874651597803L142.04921846389772,152.88334885012046L142.14701482772827,152.8798391940432L142.6359966468811,152.87301168350666L143.02718210220337,152.88269370713783L143.07608028411866,152.88321738533796L143.61396028518678,152.88894113359933L144.00514574050902,152.89518436194732L144.29853483200074,152.88401267490136L144.347433013916,152.88303501237803L144.44522937774659,152.87873093373125L144.54302574157714,152.88458299500627L144.78751665115357,152.8863124669811L145.71658210754396,152.87062409782328L145.8143784713745,152.8833577574721L146.00997119903565,152.8718686019564L146.0588693809509,152.89590881917127L146.54785120010376,152.90374220850862L146.64564756393432,152.90144441382262L146.7923421096802,152.92077389565276L146.84124029159548,152.90825897310015L146.89013847351075,152.87718354066607L147.37912029266357,152.87740136599842L147.42801847457886,152.88452047686957L147.5747130203247,152.89023569140366L147.67250938415526,152.88100545364304L147.86810211181643,152.8634523235338L147.96589847564698,152.87771763237495L148.11259302139283,152.88214923453287L148.21038938522338,152.89476419850604L148.30818574905393,152.89863900956928L148.40598211288452,152.88861320325864L148.84606575012205,152.90567511077327L149.04165847778322,152.91702475287963L149.23725120544432,152.9032239223478L149.3350475692749,152.90060094259854L149.48174211502075,152.89887826122194L149.6284366607666,152.8911733849614L149.9218257522583,152.91700908381384L149.97072393417358,152.9143341373873L150.1663166618347,152.9198513381511L150.31301120758056,152.90508270173007L150.4597057533264,152.9041811434061L150.55750211715696,152.90180682496572L150.99758575439452,152.90490454400506L151.1442803001404,152.91949861327083L151.19317848205569,152.94193296022652L151.24207666397095,152.91614148301397L151.29097484588624,152.8772360815244L151.43766939163208,152.88218137139197L151.6332621192932,152.87154275864827L151.9266512107849,152.8765138194639L151.9755493927002,152.88079291828672L152.12224393844605,152.8798361063158L152.51342939376832,152.86510129004762L152.75792030334472,152.8674521689946L152.9046148490906,152.8907546004159L153.05130939483644,152.87968231993815L153.1002075767517,152.90229262733877L153.34469848632813,152.9142846940023L153.39359666824342,152.91795951487435L153.49139303207397,152.8592607579038L153.78478212356566,152.87614127491565L153.93147666931154,152.90079757374292L154.07817121505738,152.92020417164906L154.12706939697264,152.931181006999L154.32266212463378,152.91578399221564L155.25172758102417,152.9129790891117L155.44732030868528,152.89547306966688L155.5451166725159,152.9102251833751L155.7896075820923,152.91009879160902L156.0340984916687,152.90575934266846L156.6697748565674,152.89571525105092L156.86536758422852,152.89441650890794L157.01206212997437,152.92590924055676L157.74553485870362,152.9187174272244L158.28341485977174,152.9132774477905L158.33231304168703,152.91824176194473L158.47900758743287,152.90011903919094L158.77239667892454,152.90066599127317L159.11468395233155,152.90554866310518L159.1635821342468,152.9190230766261L159.2124803161621,152.93182967610687L159.2613784980774,152.94193800428033L159.31027667999265,152.9167702642223L159.35917486190797,152.93409836241042L159.75036031723022,152.92259202882954L160.87501850128172,152.94530973334935L160.923916683197,152.93820442852547L160.9728148651123,152.91853761568558L161.31510213851928,152.91941327442558L161.8529821395874,152.91014770600307L161.95077850341795,152.8900129782775L162.53755668640136,152.8936726159765L162.58645486831665,152.8964819270193L162.7331494140625,152.9470248058798L162.83094577789308,152.95479447022103L162.87984395980834,152.92786983855598L162.97764032363892,152.90590201508243L163.9067057800293,152.8852646527697L164.1511966896057,152.8808154633879L164.29789123535159,152.89438415388366L164.44458578109743,152.88190969436013L164.88466941833497,152.89558458092577L164.93356760025026,152.90612243493197L165.22695669174195,152.9368436714049L165.3247530555725,152.91756081196127L165.37365123748782,152.9011358609349L165.66704032897948,152.91043985284523L165.81373487472533,152.90889528932124L165.86263305664062,152.91436497693394L166.10712396621705,152.9059081511147L166.2049203300476,152.91376642148458L166.30271669387815,152.91961464935514L166.44941123962403,152.92375476734424L166.49830942153932,152.93509222479116L166.88949487686156,152.93480391719413L167.133985786438,152.92391716407008L167.23178215026854,152.8887307287678L167.28068033218383,152.90378565801205L167.32957851409913,152.90260676389036L167.86745851516724,152.9030303147892L168.35644033432007,152.89377237648907L168.74762578964234,152.83309130084075L169.57889488220215,152.86238225086973L169.82338579177858,152.8553749517739L169.92118215560913,152.89161929940352L169.97008033752442,152.8596409028072L170.11677488327027,152.88966228788237L170.6057567024231,152.88876483706386L170.8991457939148,152.89896180760473L171.09473852157592,152.9009148568064L171.33922943115232,133.11905601788982L171.43702579498293,-5.8875849536200064L171.7304148864746,-9.768038621315384L171.92600761413576,47.24333518465289L171.97490579605105,16.326827354790396L172.1216003417969,-36.33502400968274L172.80617488861083,-29.666623287375074L173.05066579818728,22.472161438891106L173.14846216201784,-15.75516053208014L173.2462585258484,-11.695044071712886L173.63744398117066,16.548527678295756L174.22422216415407,58.07050719162444L174.37091670989992,32.47257911796149L174.46871307373047,52.5009262011186L174.56650943756102,46.417759590882696L174.6643058013916,44.997714811862835L174.7621021652222,27.663215094989795L175.20218580245972,51.42373929098517L175.39777853012086,79.23111545248365L175.4955748939514,51.63999651021793L176.03345489501953,71.51943468791582L176.22904762268064,74.76184827821737L176.7180294418335,19.395982207721687L177.15811307907103,41.050292543939236L177.40260398864748,71.34492159454088L177.74489126205444,96.31556522216819L177.89158580780028,106.32915901532937L177.9404839897156,90.29857039840957L178.23387308120726,54.64659328307772L178.28277126312256,57.90911482536133L178.3805676269531,45.16418964581533L178.52726217269898,17.293575500442813L178.77175308227538,55.44462752616063L178.91844762802123,75.35199333029207L178.96734580993652,100.3597736249826L179.0651421737671,117.43923066112635L179.84751308441162,79.21521117547964L180.18980035781863,73.94406385810954L180.33649490356444,66.48625739127118L180.38539308547973,89.5494571370186L180.72768035888674,96.52770634662194L180.776578540802,104.54796645514895L180.8254767227173,88.7494424106333L181.118865814209,99.14118633816766L181.26556035995483,93.08456924649654L182.43911672592165,89.09877802415123L182.58581127166747,80.53753605287773L182.68360763549805,99.95628804217903L182.92809854507448,101.68969242461986L183.07479309082032,111.38107590454337L183.12369127273558,107.57515646824687L183.22148763656617,97.35391957496059L183.27038581848143,110.72009527401029L183.61267309188844,93.12801204110472L183.710469455719,91.56646976638851L183.80826581954955,87.66258258024827L184.2483494567871,104.40551247512L184.49284036636354,106.88245256415547L184.93292400360107,81.99426586392221L185.03072036743163,95.429463221053L185.1285167312622,88.10456326504156L185.32410945892335,89.29116857902112L185.4708040046692,87.28651848412653L186.10648036956786,81.27631961072514L186.15537855148318,82.83963240905258L186.20427673339844,105.23343178226253L186.49766582489013,99.44750440322429L186.8888512802124,96.60537588310599L187.1822403717041,106.63154900046597L187.2311385536194,103.87805024916713L187.28003673553468,98.77628500447601L187.47562946319582,83.95045670704633L187.72012037277221,89.87006303643275L188.0624076461792,90.69918518851425L188.45359310150147,84.27825954527812L188.6491858291626,82.63228841032037L188.8447785568237,86.70811199371626L188.9425749206543,107.03449503878697L189.23596401214598,101.5609774626737L189.38265855789183,97.88894009001939L189.4804549217224,94.88148869133762L189.578251285553,103.40268701515825L189.67604764938355,101.39648470899769L189.8227421951294,95.1675960003955L189.92053855895995,109.40135093351273L190.06723310470582,102.49012677007329L190.65401128768923,100.97525046913752L190.89850219726563,105.1627540298942L190.9474003791809,108.01750185628327L191.14299310684206,110.8609268051283L191.485280380249,118.39364151524286L192.02316038131713,111.76210035945005L192.169854927063,101.43666722239588L192.2187531089783,98.85583499200868L192.36544765472414,96.91151107195522L192.60993856430053,96.80771141389873L192.90332765579225,105.6680959351588L192.95222583770752,99.05734267235869L193.14781856536865,88.9537199377957L193.24561492919923,105.37629995815792L193.53900402069092,100.0603725745984L193.5879022026062,99.48501587075071L193.8812912940979,105.94928508412666L194.2235785675049,117.13126431053092L194.51696765899658,108.07255537745397L194.66366220474242,111.92067133394956L194.95705129623414,106.02961548628305L195.49493129730226,100.83334281029896L195.5927276611328,113.65386962699839L195.6416258430481,127.43730019205705L195.8861167526245,107.43509571909549L195.9350149345398,125.3423948031223L196.08170948028567,76.84984205058309L196.17950584411622,68.70599922671019L196.22840402603148,81.34270630032377L196.32620038986207,74.81977988833444L196.5706912994385,92.1849959148966L197.05967311859132,106.12168027372249L197.353062210083,95.56957457326695L197.45085857391356,103.58354092414481L197.49975675582886,116.87723026234883L197.69534948349,109.75910701011405L197.74424766540528,96.30445190320287L197.9398403930664,104.53421015726298L198.03763675689697,122.66708732613924L198.3310258483887,124.48659942774712L198.37992403030395,134.83604461580504L198.5266185760498,141.63678064374608L198.72221130371096,144.42891600967917L199.30898948669434,120.62323068389608L199.55348039627074,128.38899771412605L199.60237857818603,132.20503924293567L199.7001749420166,136.53165999023975L200.14025857925415,122.97948769412228L200.18915676116941,112.56159134989004L200.48254585266113,119.41457297610545L200.53144403457642,109.27693211833326L201.2160185813904,116.21092161459146L201.4116113090515,127.33651819851207L201.50940767288208,114.4631594752176L201.60720403671266,113.34888974132384L201.7538985824585,106.95120779056825L201.90059312820435,103.03015026148549L202.34067676544188,95.19979892066168L202.6340658569336,103.86535141709156L202.73186222076416,96.96330840908188L203.26974222183227,99.79564576987092L203.31864040374757,104.2898919040874L203.61202949523926,113.42300151312168L203.95431676864624,114.00121385046819L205.12787313461303,121.28192783930612L205.17677131652832,123.37742623184536L205.2745676803589,112.55697113684593L205.42126222610474,106.22599107129693L205.5190585899353,109.88575735831017L206.54592041015624,114.61244452088741L206.6926149559021,123.3088347629547L206.88820768356322,129.89142463262172L206.93710586547851,120.53007490088135L206.9860040473938,114.86316233972974L207.08380041122436,122.79145658081924L207.2793931388855,128.89559683682302L207.42608768463134,120.3335543537759L207.52388404846192,117.26298736627088L207.62168041229248,115.41530482712065L207.96396768569946,112.60658137891198L208.1595604133606,108.93564722611646L208.30625495910644,108.97384742613318L208.55074586868287,105.28068095448651L208.9419313240051,97.09534968910323L209.13752405166628,103.88441638984055L209.23532041549683,119.12835756200985L209.33311677932738,111.08504609538339L209.38201496124267,101.86721079265571L209.6754040527344,109.072208460685L209.8709967803955,118.33617508009678L209.96879314422608,118.32060792310781L210.06658950805664,118.67114927980181L210.2132840538025,123.66639017311493L210.65336769104002,119.77475449904705L210.75116405487063,119.61656497345695L210.8000622367859,129.06140538337098L210.99565496444703,122.87657138432368L211.24014587402343,120.76553122992573L211.337942237854,113.33122045617071L211.82692405700686,120.79261541293886L211.92472042083742,119.21623598741385L212.02251678466797,118.99240332844012L212.65819314956664,116.2924374681426L212.85378587722778,110.0414001698273L212.95158224105836,117.78443142430322L213.44056406021116,115.31402577544523L213.6850549697876,111.4282366190104L214.0273422431946,108.30616013532905L214.17403678894044,118.01741885667047L214.271833152771,117.9368453430549L215.24979679107668,106.95106477918989L215.29869497299194,118.16812998209608L215.34759315490723,123.43847641154694L215.44538951873778,114.92630303614352L215.59208406448363,109.54325074451215L215.6898804283142,112.79495498148003L215.9832695198059,108.16950163738913L216.17886224746704,109.90866046993305L216.52114952087402,118.2794736089281L216.5700477027893,117.49927478176727L216.61894588470457,117.63645815280985L216.863436794281,123.97619481090086L216.9123349761963,119.8487920818373L217.10792770385743,120.49575062474358L217.64580770492555,124.56649726336836L217.93919679641724,116.4519291062829L218.23258588790893,127.20732742785816L218.3792804336548,120.12659246130744L218.47707679748535,123.69727606321587L218.77046588897704,112.93933826619931L218.9171604347229,107.81981281058142L219.11275316238402,106.93561484153322L219.30834589004516,101.79423500660445L219.40614225387571,112.96275473148319L219.5528367996216,103.1827753952856L219.65063316345214,112.99856266888196L219.84622589111328,117.2903743255936L219.94402225494383,114.26838528151828L220.0907168006897,127.91496440789783L220.3352077102661,122.19873548989676L220.53080043792724,134.15317337835475L220.57969861984253,125.20754698112796L220.6774949836731,132.2125035965965L221.11757862091065,129.93845465043665L221.16647680282594,136.55358158485632L221.70435680389406,136.93247645826148L221.8021531677246,138.6915972959619L221.8510513496399,142.3028038435852L222.19333862304686,140.07758180656123L222.29113498687744,144.3154090295783L222.34003316879273,140.7212588360764L222.38893135070802,139.25967842613701L222.43782953262328,143.10733369550587L222.63342226028442,145.2984643684007L222.73121862411497,135.868349149865L223.8069786262512,132.57786248884108L223.95367317199708,128.81012199849576L224.39375680923465,135.27430101078258L224.54045135498046,138.84067720612484L224.63824771881104,141.08912384979357L224.88273862838744,141.65117649349136L224.9316368103027,141.1216160878505L225.02943317413332,142.74794735534732L225.42061862945556,143.64538490965694L225.665109539032,142.3334526846369L226.00739681243894,143.27809262083042L227.3765459060669,144.19982374451126L227.71883317947388,144.1125713468694L228.2078149986267,143.36011148999592L228.256713180542,143.23693960616268L228.50120409011842,143.76221484593682L228.94128772735596,144.96473369204605L228.99018590927125,142.93312978995448L229.47916772842407,139.61477260252025L229.52806591033936,138.4146324704303L229.57696409225463,142.65217372656377L229.6747604560852,141.22994408883L229.77255681991576,141.90250334830088L229.87035318374635,143.65481796774066L229.91925136566164,145.30971129548743L229.9681495475769,142.04858135517898L230.06594591140748,144.43026671305785L230.94611318588255,144.3588701176357L231.19060409545898,143.75839739564648L231.43509500503538,144.9089991213363L231.58178955078125,142.34761797666758L231.7284840965271,141.36265509199086L231.9729750061035,141.0601115570624L232.5108550071716,134.0122063158181L232.95093864440918,137.43857964026043L233.09763319015502,138.79174999149427L233.1465313720703,133.34217003536062L233.58661500930785,138.1553555583577L233.88000410079957,139.4438203802968L234.6134768295288,141.68544540967025L234.66237501144408,136.4165036306669L234.76017137527464,139.83904807192783L234.9557641029358,141.99366181816185L235.1513568305969,142.521887094478L235.29805137634276,143.12640268826715L235.59144046783447,143.59424983387922L235.68923683166503,143.564344182828L236.1293204689026,143.70685770211003L236.3249131965637,144.193977044452L236.61830228805542,143.14477886816L236.86279319763182,144.24506764449112L237.15618228912354,144.33538113281082L237.35177501678467,144.77834017357245L237.5962659263611,144.04996105451528L237.93855319976805,144.41326995547166L238.13414592742922,137.82436712882662L238.57422956466672,139.9873397270002L238.7209241104126,135.85734357617915L239.307702293396,138.74988831084772L239.5032950210571,141.31020101357592" fill="none"></path></g></g></g></g><g opacity="0.2"><g><g><g><path style="fill: none;" stroke="rgb(255, 112, 67)" stroke-width="2px" d="M26.453916416168212,-33.80800744574796L26.55171277999878,22.204021062465614L26.649509143829345,54.035113711887504L26.69840732574463,-74.09427477885316L26.796203689575194,3.9005347541090885L27.089592781066894,-87.08629586194547L28.067556419372558,-77.74261304035551L28.11645460128784,104.37269969846052L28.36094551086426,33.42835139459024L28.752130966186524,49.071565596323694L29.094418239593505,32.280422162069925L29.485603694915774,89.77108766751608L29.632298240661623,-86.13159793562306L29.681196422576903,35.997072572815L30.023483695983884,-87.69775015998442L30.2679746055603,129.50807086821982L30.65916006088257,105.30610970254918L30.854752788543703,51.85843974197168L31.29483642578125,67.86660889448842L31.832716426849366,106.35008613052592L32.07720733642578,45.12106961082901L32.22390188217163,72.13588240428945L32.66398551940918,75.14377148877875L32.712883701324465,11.589998096013915L33.2018655204773,116.28293042222649L33.44635643005371,66.07098980445717L33.54415279388428,21.252742495253216L33.593050975799564,105.86653086979501L33.78864370346069,117.70145798043255L34.17982915878296,130.6765457326342L34.57101461410522,81.429486085559L34.61991279602051,118.0033584485671L34.66881097793579,46.870913236661124L34.86440370559692,-75.9160535739255L35.40228370666504,19.01054331455427L35.695672798156735,110.83659077425965L35.940163707733156,-25.65117452416615L36.086858253479,15.817633673328913L36.6736364364624,23.93284474091581L36.96702552795411,48.380479891298336L37.21151643753051,39.55381702994276L37.358210983276365,-119.03695889027881L37.5538037109375,110.80620778555283L37.74939643859863,96.70585343405487L37.8471928024292,121.3034473115527L38.77625825881958,33.02794337090245L39.020749168396,106.97611290101042L39.06964735031128,58.72607780811306L39.3141382598877,75.47924384635758L39.558629169464105,129.4397051240067L39.65642553329467,85.51195432611043L40.047610988616945,84.98243065928703L40.09650917053222,89.12668854118628L40.38989826202393,138.54400601040712L40.43879644393921,82.88112729621261L40.48769462585449,90.67734645961167L40.63438917160034,91.11486900028564L41.074472808837896,109.28331206178281L41.465658264160155,108.64357033837878L42.248029174804685,111.36556509263669L42.44362190246582,100.9842648863052L42.73701099395752,144.79372890483057L42.93260372161865,147.3102552812793L43.03040008544922,96.21768900587153L43.61717826843262,102.32128253381316L43.6660764503479,140.90813910821115L44.44844736099243,142.73593393870834L45.08412372589111,143.44606729620574L45.133021907806395,107.6832288616756L45.23081827163696,140.01867831970603L45.52420736312866,108.91304316968663L45.96429100036621,117.58401532184507L46.06208736419678,138.08326612856575L46.110985546112055,115.91239355527843L46.25768009185791,136.81176699246964L46.55106918334961,123.31827518992358L46.99115282058716,131.87957193457646L47.137847366333006,126.21072070822049L47.18674554824829,132.0680466871533L47.626829185485846,135.1671959473266L47.67572736740112,126.58224640237202L48.40920009613037,136.42125126043922L48.50699645996094,131.34687946512952L48.604792823791506,141.17604562650973L49.28936737060547,135.5845185436654L49.53385828018188,122.1812444946295L49.63165464401245,145.46753157178355L49.7783491897583,119.22962476953916L50.16953464508057,120.17307043183095L50.462923736572264,148.8537509018509L50.56072010040283,125.00512864707142L50.70741464614868,133.69225968279858L51.00080373764038,134.47005669039714L51.245294647216795,105.82528418059275L51.73427646636963,104.54185614396492L51.83207283020019,105.42646256802813L52.02766555786133,94.59312898279308L52.32105464935303,108.48722845029155L52.51664737701416,131.9172960943507L52.56554555892944,128.8442167676431L52.81003646850586,137.1319795221078L52.907832832336425,146.7787948262139L52.956731014251716,133.24719632979256L53.05452737808228,133.11925709625672L53.152323741912845,140.3667709529344L53.20122192382812,143.7593734439737L53.44571283340454,142.18021706998735L53.49461101531982,139.600006469988L53.934694652557376,134.50550708355314L54.22808374404907,107.32233105014986L54.32588010787964,140.83065819941115L54.570371017456054,136.80605242875316L54.81486192703247,32.44752056071184L54.912658290863035,-24.967774337892877L55.49943647384644,126.20499140588717L55.84172374725342,126.7455020416379L55.8906219291687,131.0260706914459L55.98841829299927,135.9874589297035L56.03731647491455,135.78503072658896L56.08621465682983,134.06113510566496L56.135112838745115,130.81632409512636L56.23290920257568,127.1427720798101L56.379603748321536,145.29467037395185L56.575196475982665,108.68363793823274L56.819687385559085,115.52480008900781L56.96638193130493,82.00459763418522L57.16197465896606,60.52353520562825L57.30866920471191,125.92751416575351L57.455363750457764,60.035745942237554L57.6509564781189,92.93559733393859L57.69985466003418,134.03547383384836L57.89544738769531,113.18187452098203L58.139938297271726,98.20577299402422L58.18883647918701,112.24274593355413L58.53112375259399,88.03066067797924L58.677818298339844,64.46047166361753L58.87341102600098,125.58514413548716L59.020105571746825,101.83082960039471L59.41129102706909,35.222250086072364L59.60688375473023,124.41415834671061L59.75357830047607,-18.54640015209398L59.80247648239136,16.82952815203788L59.85137466430664,81.52196956644184L60.19366193771362,121.36883317541285L60.487051029205325,138.49055574644996L60.584847393035886,111.42744048593711L60.63374557495118,137.8264658280036L60.82933830261231,70.86002197747887L61.02493103027344,84.06177625814813L61.17162557601929,136.66832005425516L61.22052375793457,138.25866102862207L61.26942193984985,102.48957610029449L61.465014667510985,118.9435106999292L61.905098304748535,117.77502243677225L62.100691032409664,117.57273358058069L62.149589214324955,144.17497497182626L62.19848739624023,138.50403086187706L62.2962837600708,145.3004706896209L62.345181941986084,141.73014928662235L62.63857103347778,145.1078684543879L62.83416376113892,93.46369537454994L62.8830619430542,102.4860120347644L62.98085830688477,109.14863326072204L63.07865467071534,100.55558015624644L63.22534921646118,130.7876802632083L63.27424739837647,100.07486542894551L63.323145580291744,95.87896879308788L63.372043762207035,116.77043831202272L63.51873830795288,142.66366581071463L63.71433103561401,131.0574049908769L63.95882194519043,138.36743738049955L64.00772012710571,139.8971316262619L64.056618309021,142.45657417524015L64.3500074005127,120.56292828559998L64.6433964920044,135.30480371351848L64.83898921966552,140.48630113561808L64.98568376541138,138.46747507245703L65.18127649307252,124.9913279421993L65.37686922073364,146.5123199635615L65.4746655845642,134.42374795624278L65.71915649414062,131.58929621551673L66.89271286010742,60.49780961984722L66.99050922393799,11.374171150305074L67.03940740585327,35.20333106152921L67.2350001335144,89.67800392296502L67.33279649734497,121.54222898307407L67.52838922500611,119.05236744426226L67.62618558883666,133.35315894572523L68.01737104415893,141.748074124465L68.31076013565064,143.03984019860926L68.50635286331178,140.39520576446802L68.84864013671876,142.27806138778215L68.89753831863403,142.80135396936208L68.94643650054931,142.43924759125434L68.99533468246459,141.47814841565747L69.23982559204102,142.55995820316056L69.33762195587158,144.36643898387587L69.48431650161743,141.71416592658164L69.5332146835327,143.09509728300523L69.63101104736329,143.13033597602822L70.02219650268555,143.1083265315057L70.07109468460082,142.9603896746479L70.21778923034668,143.8596422642409L70.56007650375366,142.1603346758517L70.70677104949952,143.0382470881148L71.14685468673706,143.66857820465773L71.24465105056763,141.96847138127274L71.3424474143982,143.08276575025857L71.48914196014405,143.02984071701113L71.53804014205933,143.14614314260382L71.73363286972045,143.92972907694025L71.97812377929687,142.4767741195753L72.02702196121217,141.87182759081438L72.22261468887329,142.91953824835215L72.27151287078857,142.00780205028403L72.32041105270386,143.46864283760286L72.36930923461914,141.97268260607012L72.56490196228027,142.8534080843409L72.61380014419557,142.3541702653405L72.7604946899414,142.49468555867534L72.80939287185669,143.381731893765L73.20057832717896,144.26684010073836L73.3961710548401,152.80375138509604L73.49396741867065,152.80335427986242L73.59176378250122,152.80440197779114L73.6406619644165,152.83896738399875L74.03184741973877,152.8021079455747L74.08074560165406,152.81158671853876L74.2274401473999,152.80760997173678L74.61862560272216,152.81192989383345L74.71642196655273,152.80597725120953L74.91201469421387,152.81085631958308L74.96091287612914,152.8061769762163L75.20540378570557,152.80665413893695L75.54769105911254,152.80916087619207L76.08557106018065,152.82862422465308L76.18336742401124,152.8055882689636L76.47675651550293,152.81358329866958L76.52565469741822,152.80493106063932L76.62345106124877,152.80545042939914L76.72124742507935,152.82163694787445L76.91684015274048,152.80752974676548L77.11243288040161,152.80874300290742L77.21022924423217,152.81087030452068L77.4547201538086,152.82515964478677L77.50361833572389,152.80553400405608L77.55251651763916,152.8071522371929L77.94370197296142,152.81539363627837L78.23709106445312,152.8075055452867L78.43268379211426,152.80944559947218L78.48158197402954,152.8123403978097L78.53048015594482,152.83977825915213L78.97056379318238,152.83113389288314L79.21505470275879,152.8125200247026L79.5084437942505,152.8252815733444L79.89962924957275,152.81241492831538L79.99742561340332,152.81301360088293L80.97538925170898,152.8115745759283L81.02428743362427,152.81320788265052L81.2198801612854,152.81146043538982L81.26877834320068,152.81081679329245L81.31767652511597,152.81287475641278L82.19784379959107,152.81034180786747L82.44233470916748,152.80489245551223L82.78462198257446,-288.31067018986306L82.83352016448974,-97.02198872632158L83.12690925598145,152.83374949492185L83.22470561981201,152.8035511576364L83.46919652938843,152.8051124461172L83.566992893219,152.81117479094613L83.66478925704956,152.81282250131667L83.8603819847107,152.81118500748735L84.74054925918578,152.83306716395523L84.83834562301635,152.80870691004455L84.93614198684693,152.82962075613355L85.32732744216919,152.82217884327025L85.47402198791504,152.80784888806565L85.76741107940674,152.80713515379608L85.8652074432373,152.80693166039293L85.96300380706788,152.83082614051418L86.01190198898315,152.80683217472918L86.158596534729,152.83139533584801L86.40308744430541,152.8167951447537L86.79427289962769,152.80802725882646L87.13656017303467,152.8094403237173L87.42994926452637,152.80687840039113L87.62554199218751,152.8071059277888L87.67444017410278,152.82717381076728L87.72333835601806,152.80858992227326L87.77223653793335,152.81317455327832L88.06562562942504,152.82016827820183L88.55460744857788,152.8150519683422L88.65240381240844,152.81534255357224L88.7990983581543,152.81015322056547L88.84799654006957,152.8062567824769L88.99469108581543,152.82362280901123L89.28808017730714,152.8465297180611L89.38587654113769,152.8146360211268L89.53257108688355,152.80981590722064L89.6792656326294,152.80763668547982L89.82596017837525,152.83089313422715L89.87485836029053,152.8106734267467L90.75502563476563,152.8110963245598L91.29290563583373,152.81206002912091L91.48849836349488,152.8122067453523L92.17307291030883,152.81258743712627L92.22197109222411,152.8119074509396L92.36866563796997,152.81939232352136L92.41756381988525,152.8148479724862L92.51536018371581,152.85644361519093L92.5642583656311,152.8432110170048L93.54222200393676,152.8611977402898L93.59112018585205,152.81762243336678L93.64001836776734,152.81271154297954L93.88450927734375,152.8110278234883L94.0312038230896,152.82434299142565L94.22679655075073,152.83026062983456L94.3245929145813,152.81267838109164L94.52018564224244,152.8323490750943L94.71577836990357,152.82531841988651L94.9113710975647,152.81667505852323L95.69374200820923,152.83525392248876L96.13382564544678,152.86298278777193L96.18272382736207,-14.742368501645956L96.72060382843017,152.83510017191747L97.11178928375244,152.8311091889515L97.16068746566772,152.82822812432516L97.30738201141358,152.82961079081875L97.40517837524413,152.86908373772795L97.45407655715942,152.8372870979353L97.84526201248168,152.82736641769205L97.89416019439697,152.8186855398495L98.23644746780396,152.85544984720113L98.33424383163452,152.8591254572633L98.72542928695678,152.87409938953382L98.9699201965332,152.85182314254942L99.01881837844849,152.83004398891524L99.16551292419435,152.88723668916325L99.50780019760131,152.8286561304089L100.09457838058471,152.86571353525477L100.33906929016113,152.82055843283774L100.38796747207641,152.83989432575987L100.485763835907,152.81836397002724L100.53466201782227,152.90954459067706L100.82805110931396,152.83265883727466L101.17033838272094,152.8407256339957L101.21923656463622,152.87432633073652L101.65932020187378,152.83164312884387L101.85491292953492,152.81615367995204L101.95270929336547,152.83308843445909L102.14830202102661,152.8374198292291L102.58838565826416,152.8495681341708L102.93067293167115,152.8653785666899L102.97957111358643,152.84260263034886L103.22406202316284,152.8342854446256L103.6152474784851,152.78313683341975L103.71304384231567,152.82121739974698L104.05533111572267,152.82848738999436L104.10422929763794,152.8911280189812L104.29982202529908,152.86984185533237L104.54431293487549,152.81775868183053L104.69100748062134,152.84769917706316L104.78880384445189,152.84419523839048L104.93549839019775,152.86119975010118L105.0821929359436,152.83157663758374L105.27778566360473,152.85898795266743L105.668971118927,152.90275343799314L106.06015657424926,152.81211111182705L106.15795293807983,152.83781685072063L106.2557493019104,152.85052178967493L106.40244384765624,152.8760040207936L106.45134202957152,152.86158856486284L106.74473112106324,152.86444701911105L106.79362930297852,152.8252187667385L107.18481475830077,152.88605031424868L107.33150930404663,152.80912185235425L107.38040748596191,152.81978633029576L107.4293056678772,152.8423812161275L107.47820384979248,152.86653219842728L107.57600021362305,152.85512626756747L107.72269475936889,152.8655441249031L108.06498203277587,152.83704700921643L108.11388021469116,152.7894113808345L108.45616748809815,152.82428629799605L108.50506567001342,152.86370799471484L108.55396385192871,152.8437299670539L108.99404748916626,152.80165783156568L109.1896402168274,152.80685512007588L109.28743658065797,152.83681437354815L109.33633476257324,152.83407667546757L109.4341311264038,152.83919089177365L109.67862203598023,152.82989811010526L109.7275202178955,152.8637512056597L109.82531658172607,152.8634681572224L109.87421476364136,152.8500684097224L109.92311294555664,152.87043190245936L110.16760385513305,152.86717860401532L110.85217840194703,152.85880062149755L111.29226203918456,152.82606606972328L111.58565113067627,152.88620716327915L111.92793840408326,152.84717495125918L111.97683658599854,152.8917532378075L112.41692022323608,152.85467506491062L112.75920749664307,152.84030072637117L113.1992911338806,152.87473289883212L113.34598567962647,152.84111294139882L113.68827295303345,152.88264468884978L113.78606931686402,152.86457305103357L113.98166204452515,152.84035214404588L114.47064386367798,152.83560706309825L114.51954204559325,152.89098465243544L114.66623659133911,152.88557256533304L114.91072750091553,152.89876228754287L115.10632022857666,152.85706824782224L115.74199659347533,152.84782780499208L115.83979295730592,152.85533068213417L115.8886911392212,152.82461833558597L116.18208023071288,152.8769010666103L116.23097841262818,152.90035129467242L116.27987659454345,152.88061318824606L116.37767295837402,152.90099895639256L116.47546932220459,152.87868041962682L117.06224750518798,152.86643463883277L117.9424147796631,152.89027451907793L118.23580387115479,152.83551436054793L118.52919296264649,152.91409128649215L118.57809114456177,152.86316668551402L118.87148023605347,152.92027480619942L119.06707296371461,152.82193506989717L119.16486932754516,152.82602436613695L119.26266569137573,152.88829837202957L119.55605478286742,152.90133668844808L119.70274932861328,152.82578151392744L119.80054569244385,152.8054982461618L119.94724023818969,152.90544482666962L120.09393478393554,152.87844024716583L120.2406293296814,152.8961332867616L120.68071296691895,152.79839339541687L120.77850933074951,152.7858124785737L121.36528751373291,152.87012909087673L121.41418569564819,152.867311837762L121.46308387756348,152.85381486563605L122.14765842437744,152.8718992322577L122.34325115203858,152.89393698162397L122.5388438796997,152.8473442778687L122.73443660736083,152.85223548885276L122.78333478927613,152.90564873878347L122.93002933502197,152.85112180211675L123.02782569885254,152.86959188504085L123.12562206268309,152.9119693443759L123.51680751800538,152.8843665110153L123.61460388183593,152.92614864746847L123.76129842758179,152.86430047036393L123.90799297332764,152.8686370571467L124.05468751907348,152.91294636393746L124.15248388290405,152.85365508563063L124.29917842864991,152.8808119920893L124.44587297439574,152.8801408825696L125.22824388504029,152.8928408807376L125.57053115844725,152.96431932033965L125.81502206802368,152.8680996000844L125.86392024993897,152.92237832504458L125.91281843185425,152.896076007137L126.01061479568482,152.8874279562138L126.0595129776001,152.8804015718552L126.15730934143068,152.87805486583196L126.25510570526123,152.86099139965384L126.45069843292237,152.8944756948184L126.64629116058349,152.9030349790719L126.89078207015991,152.89064005352435L126.98857843399048,152.9341729869239L127.33086570739746,152.88992715667618L127.42866207122802,152.84092594519748L127.47756025314331,152.8661566986661L127.62425479888915,152.86861645657996L127.72205116271972,152.8207661970901L127.91764389038086,152.88183540479707L128.06433843612672,152.90445398965477L128.16213479995727,152.85343584870492L128.25993116378783,152.88068252673898L128.30882934570312,152.9006186833293L128.79781116485594,152.8789544239129L128.84670934677123,152.8771841150476L129.04230207443237,152.8445191529927L129.18899662017822,152.88096122058494L129.33569116592406,152.8682786407823L129.38458934783935,152.87490063434097L129.5312838935852,152.86464188707365L129.5801820755005,152.92445228291388L129.67797843933104,152.90319986734795L129.92246934890747,152.92441451520818L129.97136753082276,152.88594479915074L130.31365480422974,152.8512865229085L130.36255298614503,152.90965730759913L130.55814571380617,152.85932677337078L130.65594207763672,152.84555202856245L130.75373844146728,152.8702718712275L130.9493311691284,152.79687414549096L131.43831298828124,152.85235130423405L131.53610935211182,152.8596140926573L131.63390571594238,152.83881329845892L131.68280389785767,152.86473718563036L131.8783966255188,152.89650979142849L132.02509117126465,152.8720932627989L132.41627662658692,152.88837918319584L132.61186935424806,152.86035621551272L132.7585638999939,152.86999468474008L133.29644390106202,152.89982346795634L133.49203662872313,152.85224712901038L133.5898329925537,152.8692419266327L133.73652753829955,152.84535213607137L133.83432390213014,152.84129240080745L133.8832220840454,152.8694873748486L133.98101844787598,152.88184587256472L134.07881481170654,152.87791015941193L134.12771299362183,152.83844148335194L134.22550935745238,152.8617971665366L134.32330572128296,152.9010695510176L134.37220390319825,152.88448232639658L134.56779663085936,152.86454357379986L134.7144911766052,152.86185896823682L134.86118572235108,152.85945020928693L135.10567663192748,152.88113816772932L135.6924548149109,152.89148375559708L135.88804754257202,152.90089067780397L136.03474208831787,152.83440519588754L136.5237239074707,152.9020016010493L136.8171129989624,152.84632103264522L136.86601118087768,152.86402981576353L136.96380754470826,152.88061436063603L137.1105020904541,152.85259876226135L137.25719663619995,152.91458477893033L137.30609481811524,152.95834281120545L137.3549930000305,152.87818650847794L137.84397481918333,152.86322011300012L137.89287300109862,152.91319834404038L137.9417711830139,152.86331892872676L138.0395675468445,152.88300553373625L138.6263457298279,152.8364142535974L138.67524391174317,152.81322605469518L138.72414209365846,152.93251120787363L138.77304027557372,152.88626402419305L139.16422573089602,152.91776069963586L139.60430936813353,152.83614510635556L140.43557846069336,152.86662699453115L141.12015300750733,152.91004235396443L141.26684755325317,152.82463701008345L141.31574573516846,152.90024385350523L141.36464391708375,152.87067919300236L141.4624402809143,152.90232526442512L141.85362573623658,152.88441499771503L141.95142210006713,152.8941715433615L142.04921846389772,152.87525235133407L142.14701482772827,152.87457470992737L142.6359966468811,152.8627704177018L143.02718210220337,152.89721674258462L143.07608028411866,152.88400290263812L143.61396028518678,152.89752675599138L144.00514574050902,152.90454920446933L144.29853483200074,152.86725514433238L144.347433013916,152.881568518593L144.44522937774659,152.87227481576105L144.54302574157714,152.89336108691882L144.78751665115357,152.88890667494334L145.71658210754396,152.84709154408654L145.8143784713745,152.90245824694534L146.00997119903565,152.85463486868284L146.0588693809509,152.93196914499356L146.54785120010376,152.91549229251467L146.64564756393432,152.8979977217936L146.7923421096802,152.94976811839797L146.84124029159548,152.88948658927126L146.89013847351075,152.83057039201492L147.37912029266357,152.87772810399693L147.42801847457886,152.89519914317634L147.5747130203247,152.8988085132048L147.67250938415526,152.8671600970021L147.86810211181643,152.83712262836994L147.96589847564698,152.89911559563666L148.11259302139283,152.8887966377698L148.21038938522338,152.9136866444658L148.30818574905393,152.90445122616413L148.40598211288452,152.87357449379272L148.84606575012205,152.9312679720452L149.04165847778322,152.9340492160392L149.23725120544432,152.88252267655002L149.3350475692749,152.8966664729747L149.48174211502075,152.896294239157L149.6284366607666,152.87961607057062L149.9218257522583,152.9557626320925L149.97072393417358,152.91032171774754L150.1663166618347,152.9281271392968L150.31301120758056,152.88292974709847L150.4597057533264,152.90282880592022L150.55750211715696,152.89824534730514L150.99758575439452,152.90955112256407L151.1442803001404,152.94138971716947L151.19317848205569,152.97558448066007L151.24207666397095,152.87745426719516L151.29097484588624,152.81887797929002L151.43766939163208,152.88959930619333L151.6332621192932,152.85558483953275L151.9266512107849,152.88397041068734L151.9755493927002,152.8872115665209L152.12224393844605,152.87840088835947L152.51342939376832,152.8429990656454L152.75792030334472,152.87097848741507L152.9046148490906,152.92570824754782L153.05130939483644,152.86307389922155L153.1002075767517,152.93620808843968L153.34469848632813,152.9322727939976L153.39359666824342,152.9234717461824L153.49139303207397,152.77121262244796L153.78478212356566,152.90146205043348L153.93147666931154,152.93778202198382L154.07817121505738,152.9493140685083L154.12706939697264,152.94764626002387L154.32266212463378,152.89268847004058L155.25172758102417,152.9087717344558L155.44732030868528,152.86921404049968L155.5451166725159,152.93235335393746L155.7896075820923,152.9099092039599L156.0340984916687,152.89925016925758L156.6697748565674,152.88064911362463L156.86536758422852,152.89246839569347L157.01206212997437,152.97314833803L157.74553485870362,152.9079297072259L158.28341485977174,152.90511747863962L158.33231304168703,152.92568823317606L158.47900758743287,152.87293495506026L158.77239667892454,152.90148641939658L159.11468395233155,152.9128726708532L159.1635821342468,152.93923469690745L159.2124803161621,152.95103957532802L159.2613784980774,152.95710049654053L159.31027667999265,152.8790186541352L159.35917486190797,152.9600905096926L159.75036031723022,152.90533252845825L160.87501850128172,152.97938629012907L160.923916683197,152.92754647128962L160.9728148651123,152.88903739642578L161.31510213851928,152.92072676253554L161.8529821395874,152.8962493533693L161.95077850341795,152.85981088668913L162.53755668640136,152.89916207252503L162.58645486831665,152.9006958935835L162.7331494140625,153.02283912417056L162.83094577789308,152.96644896673286L162.87984395980834,152.88748289105843L162.97764032363892,152.8729502798721L163.9067057800293,152.85430860930066L164.1511966896057,152.87414167931516L164.29789123535159,152.91473718962732L164.44458578109743,152.86319800507485L164.88466941833497,152.91609691077423L164.93356760025026,152.92192921594125L165.22695669174195,152.9829255261143L165.3247530555725,152.8886365227958L165.37365123748782,152.87649843439533L165.66704032897948,152.9243958407107L165.81373487472533,152.90657844403523L165.86263305664062,152.92256950835298L166.10712396621705,152.89322291238582L166.2049203300476,152.9255538270394L166.30271669387815,152.92838699116098L166.44941123962403,152.92996494432788L166.49830942153932,152.95209841096153L166.88949487686156,152.93437145579858L167.133985786438,152.90758703438402L167.23178215026854,152.83595107581436L167.28068033218383,152.92636805187846L167.32957851409913,152.90083842270786L167.86745851516724,152.9036656411374L168.35644033432007,152.8798854690389L168.74762578964234,152.74206968736823L169.57889488220215,152.90631867591318L169.82338579177858,152.84486400313023L169.92118215560913,152.94598582084788L169.97008033752442,152.81167330791277L170.11677488327027,152.9346943654951L170.6057567024231,152.88741866083612L170.8991457939148,152.91425726341603L171.09473852157592,152.90384443060887L171.33922943115232,103.44626775951497L171.43702579498293,-214.39754641088473L171.63261852264404,-124.62292683482076L171.7304148864746,94.00997282911325L171.92600761413576,132.7603958936053L171.97490579605105,-30.04793439000332L172.41498943328855,-58.4831746833697L172.51278579711916,12.60787377341697L172.65948034286498,62.91318486882885L172.70837852478027,-10.089467553382292L172.80617488861083,-66.70751582963857L173.05066579818728,100.68033852829039L173.14846216201784,-73.09614348853708L173.1973603439331,-54.27549787302317L173.2462585258484,17.50733302340376L173.63744398117066,58.91388530330872L174.22422216415407,120.3534764616175L174.37091670989992,-5.924312992532975L174.46871307373047,82.54344682585425L174.56650943756102,37.29300967552885L174.6643058013916,42.86764764333307L174.7621021652222,1.6614655196801777L175.20218580245972,87.06452558497828L175.39777853012086,120.94217969473138L175.4955748939514,10.253318096819328L176.03345489501953,101.33859195446269L176.22904762268064,79.62546866366965L176.7180294418335,-63.652816898021854L177.15811307907103,73.5317580482656L177.40260398864748,116.78686517044332L177.74489126205444,133.77153066360918L177.89158580780028,121.34954970507114L177.9404839897156,66.25268747302984L178.23387308120726,1.1686276100799375L178.28277126312256,62.80289713878673L178.3805676269531,26.04680187649629L178.52726217269898,-24.512345717615887L178.77175308227538,112.6712055647373L178.91844762802123,105.21304203648923L178.96734580993652,137.8714440670184L179.0651421737671,143.05841621534196L179.84751308441162,21.87918194700964L180.18980035781863,66.03734288205439L180.33649490356444,55.29954769101366L180.38539308547973,124.14425675563973L180.72768035888674,106.9950801610269L180.776578540802,116.57835661793948L180.8254767227173,65.05165634385985L181.118865814209,114.72880222946918L181.26556035995483,83.99964360898989L182.43911672592165,83.12009119063326L182.58581127166747,67.69567309596749L182.68360763549805,129.08441602613095L182.92809854507448,104.28979899828113L183.07479309082032,125.91815112442862L183.12369127273558,101.86627731380216L183.22148763656617,82.02206423503115L183.27038581848143,130.76935882258485L183.61267309188844,66.73988719174638L183.710469455719,89.22415635431419L183.80826581954955,81.80675180103792L184.2483494567871,129.51990731742762L184.49284036636354,110.59786269770865L184.93292400360107,44.6619858135723L185.03072036743163,115.58225925674918L185.1285167312622,77.11721333102439L185.32410945892335,91.07107654999045L185.4708040046692,84.27954334178463L186.10648036956786,72.26102130062307L186.15537855148318,85.18460160654375L186.20427673339844,138.82413084207744L186.49766582489013,90.76861333466694L186.8888512802124,92.34218310292857L187.1822403717041,121.67080867650591L187.2311385536194,99.74780212221889L187.28003673553468,91.12363713743933L187.47562946319582,61.711714260901786L187.72012037277221,98.74947253051238L188.0624076461792,91.94286841663649L188.45359310150147,74.64687108042394L188.6491858291626,80.16333170788374L188.8447785568237,92.8218473688101L188.9425749206543,137.52406960639306L189.23596401214598,93.35070109850378L189.38265855789183,92.38088403103792L189.4804549217224,90.37031159331498L189.578251285553,116.1844845008892L189.67604764938355,98.38718124975684L189.8227421951294,85.82426293749222L189.92053855895995,130.75198333318858L190.06723310470582,92.12329052491417L190.65401128768923,98.70293601773388L190.89850219726563,111.44400937102921L190.9474003791809,112.29962359586689L191.14299310684206,115.12606422839582L191.485280380249,129.6927135804147L192.02316038131713,101.81478862576081L192.169854927063,85.94851751681463L192.2187531089783,94.98458664642786L192.36544765472414,93.99502519187506L192.60993856430053,96.65201192681398L192.90332765579225,118.9586727170489L192.95222583770752,89.14121277815849L193.14781856536865,73.79828583595122L193.24561492919923,130.01016998870125L193.53900402069092,92.08648149925912L193.5879022026062,98.62198081497918L193.8812912940979,115.64568890419055L194.2235785675049,133.9042331501373L194.51696765899658,94.48449197783857L194.66366220474242,117.69284526869293L194.95705129623414,97.19303171478327L195.49493129730226,93.03893379632278L195.5927276611328,132.88465985204755L195.6416258430481,148.11244603964502L195.8861167526245,77.43178900965314L195.9350149345398,152.20334342916252L196.08170948028567,4.1110129217742895L196.17950584411622,56.490234990900845L196.22840402603148,100.29776691074413L196.32620038986207,65.03539027035039L196.5706912994385,118.23281995473988L197.05967311859132,127.02670681196132L197.353062210083,79.74141602258362L197.45085857391356,115.60449045046163L197.49975675582886,136.81776426965484L197.69534948349,99.0819221317619L197.74424766540528,76.12246924283612L197.9398403930664,116.87884753835311L198.03763675689697,149.8664030794536L198.3310258483887,127.215867580159L198.37992403030395,150.3602123978919L198.5266185760498,151.83788468565768L198.72221130371096,148.6171190585788L199.30898948669434,84.91470269522141L199.55348039627074,140.03764825947104L199.60237857818603,137.9291015361501L199.7001749420166,143.02159111119582L200.14025857925415,102.65122924994608L200.18915676116941,96.93474683354167L200.48254585266113,129.69404541542858L200.53144403457642,94.070470831675L201.2160185813904,126.61190585897874L201.4116113090515,144.02491307439297L201.50940767288208,95.15312139027589L201.60720403671266,111.67748514048324L201.7538985824585,97.35468486443487L201.90059312820435,97.14856396786135L202.34067676544188,83.45427190942597L202.6340658569336,116.86368016173638L202.73186222076416,86.61024389706738L203.26974222183227,104.04415181105445L203.31864040374757,111.0312611054121L203.61202949523926,127.12266592667311L203.95431676864624,114.868532356488L205.12787313461303,132.20299882256302L205.17677131652832,126.52067382065422L205.2745676803589,96.32628849434678L205.42126222610474,96.72952097297343L205.5190585899353,115.37540678882999L206.54592041015624,121.70247526475328L206.6926149559021,136.35342012605562L206.88820768356322,139.76530943712226L206.93710586547851,106.48805030327081L206.9860040473938,106.36279349800233L207.08380041122436,134.6838979424535L207.2793931388855,138.05180722082864L207.42608768463134,107.49049062920524L207.52388404846192,112.6571368850133L207.62168041229248,112.64378101839532L207.96396768569946,108.39349620659894L208.1595604133606,103.42924599692319L208.30625495910644,109.03114772615825L208.55074586868287,99.74093124701653L208.9419313240051,84.81735279102833L209.13752405166628,114.06801644094656L209.23532041549683,141.99426932026378L209.33311677932738,99.0200788954437L209.38201496124267,88.04045783856418L209.6754040527344,119.87970496272895L209.8709967803955,132.23212500921449L209.96879314422608,118.29725718762435L210.06658950805664,119.1969613148428L210.2132840538025,131.15925151308463L210.65336769104002,113.93730098794518L210.75116405487063,119.37928068507182L210.8000622367859,143.22866599824206L210.99565496444703,113.59932038575272L211.24014587402343,117.59897099832881L211.337942237854,102.17975429553817L211.82692405700686,131.9847078480911L211.92472042083742,116.85166684912633L212.02251678466797,118.65665433997953L212.65819314956664,112.24248867769631L212.85378587722778,100.66484422235435L212.95158224105836,129.3989783060171L213.44056406021116,111.6084173021582L213.6850549697876,105.59955288435822L214.0273422431946,103.623045409807L214.17403678894044,132.58430693868263L214.271833152771,117.81598507263149L215.24979679107668,90.47239393339237L215.29869497299194,134.99372778645537L215.34759315490723,131.3439960557232L215.44538951873778,102.15804297303839L215.59208406448363,101.4686723070651L215.6898804283142,117.67251133693185L215.9832695198059,101.2313216212528L216.17886224746704,112.51739871874895L216.52114952087402,130.83569331742066L216.5700477027893,116.32897654102604L216.61894588470457,117.84223320937372L216.863436794281,133.48579979803742L216.9123349761963,113.65768798824195L217.10792770385743,121.46618843910295L217.64580770492555,130.67261722130556L217.93919679641724,104.28007687065471L218.23258588790893,143.34042491022103L218.3792804336548,109.50549001148134L218.47707679748535,129.0533014660785L218.77046588897704,96.80243157067453L218.9171604347229,100.14052462715458L219.11275316238402,105.60931788796093L219.30834589004516,94.08216525421129L219.40614225387571,129.7155343188013L219.5528367996216,88.51280639098923L219.65063316345214,127.7222435792765L219.84622589111328,123.72809181066108L219.94402225494383,109.73540171540529L220.0907168006897,148.38483309746715L220.3352077102661,113.62439211289515L220.53080043792724,152.08483021104175L220.57969861984253,111.78910738528776L220.6774949836731,142.71993851979926L221.11757862091065,126.52738123119693L221.16647680282594,146.47627198648584L221.70435680389406,137.5008187683692L221.8021531677246,141.3302785525126L221.8510513496399,147.71961366502006L222.19333862304686,136.73974875102533L222.29113498687744,150.67214986410386L222.34003316879273,135.33003354582354L222.38893135070802,137.06730781122795L222.43782953262328,148.87881659955917L222.63342226028442,148.5851603777429L222.73121862411497,121.72317632206145L223.8069786262512,127.64213249730523L223.95367317199708,123.15851126297778L224.39375680923465,144.9705695292128L224.54045135498046,144.19024149913818L224.63824771881104,144.46179381529666L224.88273862838744,142.49425545903807L224.9316368103027,140.32727547938921L225.02943317413332,145.18744425659253L225.42061862945556,144.99154124112138L225.665109539032,140.36555434710684L226.00739681243894,144.69505252512067L227.3765459060669,145.58242043003256L227.71883317947388,143.98169275040658L228.2078149986267,142.2314217046857L228.256713180542,143.05218178041287L228.50120409011842,144.55012770559804L228.94128772735596,146.7685119612099L228.99018590927125,139.88572393681716L229.47916772842407,134.6372368213689L229.52806591033936,136.61442227229537L229.57696409225463,149.00848561076396L229.6747604560852,139.09659963222936L229.77255681991576,142.91134223750723L229.87035318374635,146.28328989690027L229.91925136566164,147.79205128710757L229.9681495475769,137.15688644471635L230.06594591140748,148.00279474987613L230.94611318588255,144.25177522450247L231.19060409545898,142.85768831266265L231.43509500503538,146.63490170987103L231.58178955078125,138.50554625966447L231.7284840965271,139.8852107649758L231.9729750061035,140.60629625466976L232.5108550071716,123.44034845395166L232.95093864440918,142.57813962692387L233.09763319015502,140.821505518345L233.1465313720703,125.1678001011602L233.58661500930785,145.37513384285333L233.88000410079957,141.37651761320552L234.6134768295288,145.04788295373038L234.66237501144408,128.5130909621619L234.76017137527464,144.97286473381922L234.9557641029358,145.2255824375129L235.1513568305969,143.31422500895218L235.29805137634276,144.03317607895087L235.59144046783447,144.29602055229734L235.68923683166503,143.51948570625115L236.1293204689026,143.92062798103308L236.3249131965637,144.92465605796497L236.61830228805542,141.570981603722L236.86279319763182,145.8955008089878L237.15618228912354,144.4708513652904L237.35177501678467,145.44277873471486L237.5962659263611,142.95739237592954L237.93855319976805,144.95823330690624L238.13414592742922,127.94101288885904L238.57422956466672,143.23179862426062L238.7209241104126,129.66234934994753L239.307702293396,143.08870541285063L239.5032950210571,145.15067006766822" fill="none"></path></g></g></g></g></g></g><g transform="translate(61, 175)" clip-path="url(#clip_1)"><clipPath id="clip_1"><rect width="268" height="24"></rect></clipPath><g><g><line x1="0" y1="0" x2="0" y2="5" style="visibility: inherit;" fill="rgb(0, 0, 0)" stroke="rgb(204, 204, 204)" stroke-width="1px"></line><line x1="24.4490909576416" y1="0" x2="24.4490909576416" y2="5" style="visibility: inherit;" fill="rgb(0, 0, 0)" stroke="rgb(204, 204, 204)" stroke-width="1px"></line><line x1="48.8981819152832" y1="0" x2="48.8981819152832" y2="5" style="visibility: inherit;" fill="rgb(0, 0, 0)" stroke="rgb(204, 204, 204)" stroke-width="1px"></line><line x1="73.3472728729248" y1="0" x2="73.3472728729248" y2="5" style="visibility: inherit;" fill="rgb(0, 0, 0)" stroke="rgb(204, 204, 204)" stroke-width="1px"></line><line x1="97.7963638305664" y1="0" x2="97.7963638305664" y2="5" style="visibility: inherit;" fill="rgb(0, 0, 0)" stroke="rgb(204, 204, 204)" stroke-width="1px"></line><line x1="122.24545478820801" y1="0" x2="122.24545478820801" y2="5" style="visibility: inherit;" fill="rgb(0, 0, 0)" stroke="rgb(204, 204, 204)" stroke-width="1px"></line><line x1="146.6945457458496" y1="0" x2="146.6945457458496" y2="5" style="visibility: inherit;" fill="rgb(0, 0, 0)" stroke="rgb(204, 204, 204)" stroke-width="1px"></line><line x1="171.1436367034912" y1="0" x2="171.1436367034912" y2="5" style="visibility: inherit;" fill="rgb(0, 0, 0)" stroke="rgb(204, 204, 204)" stroke-width="1px"></line><line x1="195.5927276611328" y1="0" x2="195.5927276611328" y2="5" style="visibility: inherit;" fill="rgb(0, 0, 0)" stroke="rgb(204, 204, 204)" stroke-width="1px"></line><line x1="220.0418186187744" y1="0" x2="220.0418186187744" y2="5" style="visibility: inherit;" fill="rgb(0, 0, 0)" stroke="rgb(204, 204, 204)" stroke-width="1px"></line><line x1="244.49090957641602" y1="0" x2="244.49090957641602" y2="5" style="visibility: inherit;" fill="rgb(0, 0, 0)" stroke="rgb(204, 204, 204)" stroke-width="1px"></line><line x1="268.9400005340576" y1="0" x2="268.9400005340576" y2="5" style="visibility: inherit;" fill="rgb(0, 0, 0)" stroke="rgb(204, 204, 204)" stroke-width="1px"></line></g><g transform="translate(0, 8)"><text style="text-anchor: middle; visibility: hidden; font-family: &quot;Helvetica Neue&quot;, sans-serif; font-size: 12px; font-weight: 200;" x="0" y="0" dx="0em" dy="0.95em" fill="rgb(50, 49, 63)" stroke="none" stroke-width="1px">500</text><text style="text-anchor: middle; visibility: inherit; font-family: &quot;Helvetica Neue&quot;, sans-serif; font-size: 12px; font-weight: 200;" x="24.4490909576416" y="0" dx="0em" dy="0.95em" fill="rgb(50, 49, 63)" stroke="none" stroke-width="1px">1k</text><text style="text-anchor: middle; visibility: inherit; font-family: &quot;Helvetica Neue&quot;, sans-serif; font-size: 12px; font-weight: 200;" x="48.8981819152832" y="0" dx="0em" dy="0.95em" fill="rgb(50, 49, 63)" stroke="none" stroke-width="1px">1.5k</text><text style="text-anchor: middle; visibility: inherit; font-family: &quot;Helvetica Neue&quot;, sans-serif; font-size: 12px; font-weight: 200;" x="73.3472728729248" y="0" dx="0em" dy="0.95em" fill="rgb(50, 49, 63)" stroke="none" stroke-width="1px">2k</text><text style="text-anchor: middle; visibility: inherit; font-family: &quot;Helvetica Neue&quot;, sans-serif; font-size: 12px; font-weight: 200;" x="97.7963638305664" y="0" dx="0em" dy="0.95em" fill="rgb(50, 49, 63)" stroke="none" stroke-width="1px">2.5k</text><text style="text-anchor: middle; visibility: inherit; font-family: &quot;Helvetica Neue&quot;, sans-serif; font-size: 12px; font-weight: 200;" x="122.24545478820801" y="0" dx="0em" dy="0.95em" fill="rgb(50, 49, 63)" stroke="none" stroke-width="1px">3k</text><text style="text-anchor: middle; visibility: inherit; font-family: &quot;Helvetica Neue&quot;, sans-serif; font-size: 12px; font-weight: 200;" x="146.6945457458496" y="0" dx="0em" dy="0.95em" fill="rgb(50, 49, 63)" stroke="none" stroke-width="1px">3.5k</text><text style="text-anchor: middle; visibility: inherit; font-family: &quot;Helvetica Neue&quot;, sans-serif; font-size: 12px; font-weight: 200;" x="171.1436367034912" y="0" dx="0em" dy="0.95em" fill="rgb(50, 49, 63)" stroke="none" stroke-width="1px">4k</text><text style="text-anchor: middle; visibility: inherit; font-family: &quot;Helvetica Neue&quot;, sans-serif; font-size: 12px; font-weight: 200;" x="195.5927276611328" y="0" dx="0em" dy="0.95em" fill="rgb(50, 49, 63)" stroke="none" stroke-width="1px">4.5k</text><text style="text-anchor: middle; visibility: inherit; font-family: &quot;Helvetica Neue&quot;, sans-serif; font-size: 12px; font-weight: 200;" x="220.0418186187744" y="0" dx="0em" dy="0.95em" fill="rgb(50, 49, 63)" stroke="none" stroke-width="1px">5k</text><text style="text-anchor: middle; visibility: inherit; font-family: &quot;Helvetica Neue&quot;, sans-serif; font-size: 12px; font-weight: 200;" x="244.49090957641602" y="0" dx="0em" dy="0.95em" fill="rgb(50, 49, 63)" stroke="none" stroke-width="1px">5.5k</text><text style="text-anchor: middle; visibility: hidden; font-family: &quot;Helvetica Neue&quot;, sans-serif; font-size: 12px; font-weight: 200;" x="268.9400005340576" y="0" dx="0em" dy="0.95em" fill="rgb(50, 49, 63)" stroke="none" stroke-width="1px">6k</text></g><line x1="0" y1="0" x2="268.9400005340576" y2="0" fill="rgb(0, 0, 0)" stroke="rgb(204, 204, 204)" stroke-width="1px"></line></g></g></g></g></svg>